<svg width="140" height="189" viewBox="0 0 140 189" fill="none" xmlns="http://www.w3.org/2000/svg">
<path d="M93.4877 135.103C93.4877 151.026 84.9878 159.601 84.9878 159.601C64.9543 184.712 32.1738 169.401 32.1738 169.401C27.3171 178.588 20.6402 180.425 20.6402 180.425C1.21347 183.488 0 189 0 189C0 189 0.606736 182.264 6.07016 173.689C11.5336 165.113 19.4267 163.889 19.4267 163.889C6.07014 151.641 13.3566 132.042 13.3566 132.042C12.7498 140.005 21.8565 144.902 21.8565 144.902C23.6767 146.126 29.1401 151.026 29.1401 151.026C33.3901 154.702 33.3901 165.725 33.3901 165.725C55.8505 166.95 60.7072 153.477 63.7437 146.738C66.7801 140.002 62.5302 121.627 61.3167 112.44C60.4193 105.661 63.2159 97.0489 64.7398 93.0004C68.922 96.3457 80.6814 103.956 92.658 95.5799C92.4689 96.3713 92.2742 96.5165 92.2742 96.5165L93.4877 135.1V135.103Z" fill="#28A555"/>
<path d="M36.9378 51.4958L34.0988 55.5643L33.9972 55.4874C27.3175 52.424 27.927 51.8119 27.927 51.8119C27.927 51.2254 29.0417 51.7606 29.1321 51.8062L27.927 50.5876C26.7108 49.3663 27.927 49.3663 27.927 49.3663L30.354 50.5876L27.927 48.7513C27.3175 47.5299 29.1377 47.5299 29.1377 47.5299L31.5646 49.3663L29.7472 47.5299C28.5309 46.3028 30.354 46.3028 30.354 46.3028L34.6039 48.7513C33.9972 45.6907 35.4279 46.4566 35.4279 46.4566L36.9349 51.5015L36.9378 51.4958Z" fill="#FF9783"/>
<path d="M132.193 76.1889L132.238 80.3114L132.343 80.3057C138.331 81.3733 138.199 80.6673 138.199 80.6673C138.472 80.2658 137.462 80.1064 137.377 80.0922L138.769 79.8302C140.168 79.5712 139.336 78.9961 139.336 78.9961L137.109 78.6829L139.621 78.5775C140.606 78.0309 139.361 77.1682 139.361 77.1682L136.85 77.2736L138.946 76.8779C140.346 76.6159 139.102 75.7533 139.102 75.7533L135.06 75.4145C136.898 73.6123 135.566 73.4557 135.566 73.4557L132.19 76.186L132.193 76.1889Z" fill="#FF9783"/>
<path d="M131.736 76.3076V80.5952L114.132 83.6586C114.132 83.6586 111.703 83.6586 106.242 83.0465C100.779 82.4316 96.5285 71.4106 96.5285 71.4106C91.0651 82.4316 92.9841 90.7022 92.9841 90.7022C93.0321 93.3272 92.8487 94.7849 92.6596 95.5821C80.6829 103.958 68.9236 96.3451 64.7414 93.0026C65.2804 91.562 65.6642 90.6994 65.6642 90.6994C69.409 84.2651 70.4221 80.5924 70.4221 80.5924V65.6197L60.7087 72.6292C57.6751 74.4655 55.2481 72.0171 55.2481 72.0171L34.1028 55.5611L36.9417 51.4927L37.0349 51.8087L58.2818 64.0567L74.0653 46.2968C77.1018 42.6213 85.297 40.7963 85.297 40.7963C87.1171 35.6033 85.297 28.8416 85.297 28.8416L90.4584 20.5738L101.382 16.8982L103.203 19.3467V29.1462C102.596 37.1066 93.4892 36.4973 93.4892 36.4973L92.2786 41.3999C101.382 43.2334 108.062 75.6955 108.062 75.6955L131.736 76.3076Z" fill="#FF9783"/>
<path d="M86.508 38.0297C86.508 38.0297 84.0811 40.4781 82.258 40.4781C80.435 40.4781 78.0137 38.6418 75.8859 39.2539C73.7582 39.866 71.9379 42.3173 70.1177 41.7024C68.2975 41.0874 67.6908 37.4147 67.6908 37.4147C67.6908 37.4147 63.4409 36.1905 62.8341 31.9028C62.2274 27.6152 64.6543 29.4544 61.0139 23.9396C61.0139 23.9396 62.8341 22.7154 61.6207 15.3643C61.6207 15.3643 61.6207 13.528 65.2639 11.0767C65.2639 11.0767 65.8706 8.01326 65.2639 6.17692C65.2639 6.17692 65.2639 3.72846 70.1206 4.34057C70.1206 4.34057 74.3705 -0.559192 76.1907 0.0529228C78.0109 0.665038 79.2272 1.88927 82.2609 2.50138C85.2974 3.1135 88.331 1.27715 91.3675 6.78903C91.3675 6.78903 100.474 8.62538 102.294 16.5886C102.294 16.5886 104.419 17.5082 103.813 21.1809L102.399 18.8064C102.221 18.5103 101.789 18.5246 101.634 18.8349L101.383 19.3445C101.383 19.3445 94.0992 19.3445 92.2762 23.0201C92.2762 23.0201 89.8916 27.3504 87.6594 29.1868C87.2869 29.4942 87.1768 30.0124 87.3997 30.4423C87.8908 31.3847 88.2604 33.5086 86.508 38.024V38.0297Z" fill="#010643"/>
<path d="M65.565 95.2925C66.2352 95.2925 66.7785 94.7444 66.7785 94.0683C66.7785 93.3922 66.2352 92.8441 65.565 92.8441C64.8949 92.8441 64.3516 93.3922 64.3516 94.0683C64.3516 94.7444 64.8949 95.2925 65.565 95.2925Z" fill="#FFCED7"/>
<path d="M68.2972 97.436C68.9674 97.436 69.5107 96.8879 69.5107 96.2117C69.5107 95.5356 68.9674 94.9875 68.2972 94.9875C67.627 94.9875 67.0837 95.5356 67.0837 96.2117C67.0837 96.8879 67.627 97.436 68.2972 97.436Z" fill="#FFCED7"/>
<path d="M71.9407 99.2754C72.6109 99.2754 73.1542 98.7273 73.1542 98.0512C73.1542 97.375 72.6109 96.8269 71.9407 96.8269C71.2706 96.8269 70.7273 97.375 70.7273 98.0512C70.7273 98.7273 71.2706 99.2754 71.9407 99.2754Z" fill="#FFCED7"/>
<path d="M75.5799 100.499C76.2501 100.499 76.7934 99.951 76.7934 99.2749C76.7934 98.5988 76.2501 98.0507 75.5799 98.0507C74.9097 98.0507 74.3665 98.5988 74.3665 99.2749C74.3665 99.951 74.9097 100.499 75.5799 100.499Z" fill="#FFCED7"/>
<path d="M81.0443 101.112C81.7144 101.112 82.2577 100.563 82.2577 99.8873C82.2577 99.2112 81.7144 98.6631 81.0443 98.6631C80.3741 98.6631 79.8308 99.2112 79.8308 99.8873C79.8308 100.563 80.3741 101.112 81.0443 101.112Z" fill="#FFCED7"/>
<path d="M85.9007 100.499C86.5709 100.499 87.1142 99.951 87.1142 99.2749C87.1142 98.5988 86.5709 98.0507 85.9007 98.0507C85.2306 98.0507 84.6873 98.5988 84.6873 99.2749C84.6873 99.951 85.2306 100.499 85.9007 100.499Z" fill="#FFCED7"/>
<path d="M88.3292 32.518C88.9994 32.518 89.5426 31.9699 89.5426 31.2937C89.5426 30.6176 88.9994 30.0695 88.3292 30.0695C87.659 30.0695 87.1157 30.6176 87.1157 31.2937C87.1157 31.9699 87.659 32.518 88.3292 32.518Z" fill="#FFCED7"/>
<path d="M89.5443 99.2754C90.2144 99.2754 90.7577 98.7273 90.7577 98.0512C90.7577 97.375 90.2144 96.8269 89.5443 96.8269C88.8741 96.8269 88.3308 97.375 88.3308 98.0512C88.3308 98.7273 88.8741 99.2754 89.5443 99.2754Z" fill="#FFCED7"/>
<path d="M93.1856 96.2111C93.8558 96.2111 94.3991 95.663 94.3991 94.9869C94.3991 94.3108 93.8558 93.7627 93.1856 93.7627C92.5155 93.7627 91.9722 94.3108 91.9722 94.9869C91.9722 95.663 92.5155 96.2111 93.1856 96.2111Z" fill="#FFCED7"/>
<path d="M70.4211 66.2694L78.0095 68.0402C78.0095 68.0402 79.223 74.7763 84.0797 73.5521C88.9364 72.3279 88.9364 66.816 88.9364 66.816H90.7566C90.7566 66.816 89.9438 72.3023 95.0065 72.94C99.8632 73.5521 99.2565 66.2039 99.2565 66.2039C99.2565 66.2039 99.2565 61.3041 97.4363 60.692C97.4363 60.692 98.5312 51.8291 95.8588 43.7065C95.8588 43.7065 95.2887 41.967 93.175 41.6851C93.175 41.6851 96.5248 46.9123 95.9181 60.3874C95.9181 60.3874 91.0613 60.3874 91.0613 64.675H89.2412C89.2412 64.675 88.0277 60.3874 84.3845 60.3874C84.3845 60.3874 85.2 48.2105 82.9707 41.4374L81.063 42.0837C81.063 42.0837 83.7777 51.2028 82.5643 60.3874C82.5643 60.3874 77.7076 61.6116 77.7076 66.5114L70.424 64.4131C70.424 64.4131 69.8172 65.4209 70.424 66.2722L70.4211 66.2694Z" fill="#FFCED7"/>
<path d="M95.6128 26.3938C95.9479 26.3938 96.2196 25.8457 96.2196 25.1696C96.2196 24.4935 95.9479 23.9454 95.6128 23.9454C95.2778 23.9454 95.0061 24.4935 95.0061 25.1696C95.0061 25.8457 95.2778 26.3938 95.6128 26.3938Z" fill="#68303C"/>
<path d="M102.29 26.3938C102.625 26.3938 102.897 25.8457 102.897 25.1696C102.897 24.4935 102.625 23.9454 102.29 23.9454C101.955 23.9454 101.683 24.4935 101.683 25.1696C101.683 25.8457 101.955 26.3938 102.29 26.3938Z" fill="#68303C"/>
<path d="M96.6385 22.1059H94.5897C94.4853 22.1059 94.4006 22.1913 94.4006 22.2967V23.1394C94.4006 23.2448 94.4853 23.3302 94.5897 23.3302H96.6385C96.7429 23.3302 96.8276 23.2448 96.8276 23.1394V22.2967C96.8276 22.1913 96.7429 22.1059 96.6385 22.1059Z" fill="#68303C"/>
<path d="M102.708 21.4935H100.659C100.555 21.4935 100.47 21.5789 100.47 21.6843V22.527C100.47 22.6324 100.555 22.7178 100.659 22.7178H102.708C102.812 22.7178 102.897 22.6324 102.897 22.527V21.6843C102.897 21.5789 102.812 21.4935 102.708 21.4935Z" fill="#68303C"/>
<path d="M98.0442 29.7846V29.8785C98.0442 30.0778 98.3123 30.2316 98.6114 30.2059L100.039 30.0807C100.288 30.0579 100.474 29.9184 100.474 29.7532L99.8672 28.2301C99.7741 28.2927 99.7939 29.4543 99.6612 29.4543H98.5465C98.27 29.4543 98.047 29.6024 98.047 29.7846H98.0442Z" fill="#E96F69"/>
<path d="M96.5251 30.9855H99.6294L98.8956 32.0361C98.6106 32.446 98.0265 32.4973 97.6737 32.1414L96.5251 30.9827V30.9855Z" fill="white"/>
<path d="M131.735 76.3082L132.192 76.1886L132.24 80.3111L131.735 80.593V76.3082Z" fill="#FF9783"/>
</svg>
