<svg width="131" height="189" viewBox="0 0 131 189" fill="none" xmlns="http://www.w3.org/2000/svg">
<path d="M28.2576 186.192C27.4232 179.13 30.0199 172.059 33.6715 165.95C36.0928 161.897 39.0764 158.047 43.0847 155.541C47.8669 152.549 53.7856 151.712 59.3961 152.359C65.0065 153.007 70.366 155.038 75.4747 157.436C79.8064 150.958 87.146 147.087 94.9238 146.367C105.474 145.394 116.09 150.76 122.577 159.111C129.061 167.462 131.636 178.434 130.869 188.963C96.8856 189.334 62.2436 186.782 28.2606 186.192H28.2576Z" fill="#869ACF"/>
<path d="M64.9311 147.168C67.4703 151.268 72.6304 152.684 76.947 154.857C78.3013 155.537 79.8036 156.721 79.5104 158.207C71.7991 158.869 64.1754 156.047 56.4883 156.959C55.7537 157.047 56.2646 155.995 56.4188 155.275C57.0445 152.323 57.909 149.419 59.0003 146.602C59.36 145.671 59.8648 144.641 60.8291 144.369C61.4276 144.201 62.0745 144.382 62.6338 144.656C63.7764 145.219 64.2631 146.09 64.9311 147.171V147.168Z" fill="#1A1A1A"/>
<path d="M11.2631 174.686C13.8023 178.786 18.9623 180.202 23.279 182.374C24.6332 183.055 26.1356 184.239 25.8423 185.725C18.131 186.387 10.5073 183.564 2.82019 184.477C2.08564 184.565 2.59953 183.513 2.75067 182.793C3.37641 179.841 4.24096 176.937 5.33221 174.12C5.69193 173.189 6.19673 172.158 7.16102 171.887C7.75955 171.719 8.40643 171.899 8.96566 172.173C10.1083 172.737 10.595 173.608 11.2631 174.689V174.686Z" fill="#1A1A1A"/>
<path d="M34.4093 79.0666C44.6809 86.6375 59.1514 85.9627 69.9793 92.7231C71.4273 93.6269 72.8329 94.6964 73.6884 96.1696C75.3147 98.9684 74.6164 102.475 73.9272 105.635C70.9043 119.5 68.9908 133.605 68.2139 147.771C63.1234 148.864 58.4168 149.892 53.2931 148.967C56.053 134.156 58.6375 119.789 61.3974 104.979C61.0195 104.096 60.7565 103.352 59.8406 103.057C50.9383 100.21 39.4756 96.025 30.5733 93.181C20.1353 118.756 17.1971 147.253 16.4111 174.852C10.8611 176.388 5.16003 176.039 0 173.487C8.13151 146.566 7.54507 117.346 11.8647 89.5628C12.4814 85.6042 13.4245 81.2538 16.6741 78.8949C18.9866 77.2138 21.9974 76.9156 24.8479 76.6746C28.2607 76.3854 31.6524 77.0421 34.4062 79.0727L34.4093 79.0666Z" fill="#E2E3E4"/>
<path d="M27.1363 39.2089C26.8068 40.6188 28.5389 41.6431 29.999 42.1945C36.0447 44.4781 42.2234 46.4634 48.4989 48.1445C49.6506 48.4518 50.8567 48.7531 52.0326 48.5422C53.8675 48.2168 55.2217 46.6834 55.7266 45.0384C56.2314 43.3935 56.0409 41.6462 55.7991 39.953C55.0706 34.8646 53.3204 30.2612 51.7213 25.3415C49.4753 26.9111 46.9451 28.1373 44.2608 28.9537C45.337 32.2978 46.7063 35.2352 47.8852 38.5521C43.3902 35.1418 38.3179 32.3701 32.9009 30.3607C30.3919 29.4297 27.2935 28.7308 25.1624 30.2582C22.995 31.8098 23.0887 35.0032 24.6182 37.094C25.1986 37.8893 26.1478 38.8835 27.1333 39.2059L27.1363 39.2089Z" fill="#335C64"/>
<path d="M50.3007 22.2927C50.077 22.6693 49.4059 22.9495 49.3032 22.5217C50.1012 24.26 50.9385 25.9802 51.7638 27.7035C51.0987 28.2518 50.4004 28.767 49.5933 29.1917C48.7137 29.6557 47.7796 30.0142 46.8184 30.2763C46.2471 27.6462 45.7604 24.9981 45.449 22.3168C44.8142 21.7143 44.1552 20.9822 43.7864 20.1899C42.7224 17.9153 43.7381 14.8936 45.9659 13.7186C46.5372 12.7787 48.1182 12.5497 49.146 12.9444C50.2826 13.3782 51.3103 14.2549 51.6368 15.4208C51.8877 16.3246 51.6036 17.385 50.9295 18.0026C51.3255 19.2499 50.9264 21.2322 50.3007 22.2867V22.2927Z" fill="#F3AC71"/>
<path d="M18.6089 32.9998C19.3525 31.5085 19.815 29.8967 20.5677 28.4084C21.145 27.2666 21.7285 26.1007 21.8947 24.8324C22.0549 23.6062 21.807 22.356 21.928 21.1238C19.5157 20.6237 17.699 18.3853 17.699 15.9269C17.699 15.7552 17.708 15.5774 17.7745 15.4208C17.8894 15.1526 18.1554 14.9779 18.4305 14.8755C19.3192 14.5501 20.4135 14.9387 20.8972 15.7492C20.7733 14.5832 20.6674 13.4354 20.5465 12.2725C23.5059 11.2783 26.5469 10.5312 29.6332 10.0401C32.1724 9.63643 34.8477 9.42253 37.2509 10.3354C37.3264 10.3655 37.4202 10.4167 37.4081 10.4981C37.396 10.5794 37.4776 10.968 37.5471 10.9259C35.2981 15.6076 37.7617 21.3648 36.1203 26.2905C35.806 27.2395 35.3132 28.1674 34.5061 28.7609C33.0037 29.8666 30.915 29.5111 29.1012 29.0712C28.5239 32.2948 28.0039 35.5123 27.75 38.7781C27.6986 39.4559 27.2724 39.9771 26.6044 40.1127C25.9393 40.2513 25.2531 40.0193 24.6304 39.7421C21.8252 38.4798 19.5399 36.0787 18.494 33.1926C18.4638 33.1112 18.4456 33.0028 18.5182 32.9546C18.5545 32.9305 18.5877 32.9636 18.6028 32.9967L18.6089 32.9998Z" fill="#F3AC71"/>
<path d="M26.8673 25.4198C27.1666 25.8356 26.9066 26.4592 26.4653 26.7243C26.0239 26.9895 25.4829 26.9925 24.969 26.9864C24.9055 26.5888 24.9538 26.173 25.111 25.8025C24.8239 26.2272 24.1286 26.2935 23.7659 25.932C23.4031 25.5705 23.4696 24.8776 23.8958 24.5914C23.4515 24.9438 22.7109 24.516 22.6565 23.9527C22.6021 23.3893 23.0585 22.8741 23.5905 22.6783C23.1522 22.7235 22.7018 22.3981 22.6141 21.9673C22.5265 21.5365 22.8076 21.0605 23.2278 20.9279C22.4781 18.557 21.4413 16.2764 20.1475 14.1494C19.8059 13.586 20.1233 12.8118 20.6614 12.4292C21.4897 11.8417 23.7326 11.3627 24.3432 12.4804C24.7785 13.2818 24.0107 15.0803 23.9744 15.963C23.8445 19.2981 24.9025 22.7175 26.8643 25.4198H26.8673Z" fill="#824737"/>
<path d="M35.9057 13.095C36.5496 12.9022 37.3083 13.2607 37.5683 13.8783C37.6439 14.0591 37.6015 14.2308 37.5018 14.3513C37.5078 14.4236 37.5078 14.4989 37.5018 14.5772C37.4716 14.8213 37.0877 14.8333 37.1088 14.5772C37.1088 14.5561 37.1088 14.5351 37.1088 14.514C37.0061 14.4959 36.9093 14.4326 36.8368 14.3061C36.6584 13.9898 36.332 13.8361 36.0478 13.8723C35.7576 14.0139 35.6095 14.3151 35.5128 14.6315C35.407 14.9839 34.8719 14.9207 34.8659 14.5441C34.8568 13.9114 35.283 13.2848 35.9027 13.098L35.9057 13.095Z" fill="#824737"/>
<path d="M29.8478 13.9928C30.7003 13.7518 31.6434 14.0259 32.1906 14.7218C32.4233 15.0171 32.0757 15.3605 31.7795 15.1316C31.2202 14.7007 30.5129 14.4808 29.8448 14.8002C29.3974 15.0111 29.2311 15.5594 28.7656 15.6769C28.6175 15.713 28.4906 15.6287 28.4392 15.4931C28.1762 14.7911 29.2916 14.1524 29.8448 13.9958L29.8478 13.9928Z" fill="#824737"/>
<path d="M34.9113 16.8156C35.0473 16.1348 35.933 15.7853 36.5044 16.177C36.6888 16.3035 36.5194 16.6017 36.326 16.4812C35.933 16.2342 35.401 16.4812 35.3103 16.9271C35.2589 17.1892 34.8569 17.0778 34.9113 16.8187V16.8156Z" fill="#B55232"/>
<path d="M29.7785 17.1501C30.2984 17.0747 31.1599 17.1079 31.3776 17.6803C31.432 17.8219 31.2264 17.8821 31.1478 17.7767C30.9272 17.4784 30.4405 17.4965 30.108 17.5056C29.8934 17.5116 29.6364 17.5327 29.4762 17.6984C29.322 17.855 29.3583 18.0298 29.313 18.2196C29.2827 18.3431 29.1074 18.3943 29.0198 18.2979C28.5724 17.7978 29.3039 17.2193 29.7785 17.1501Z" fill="#B55232"/>
<path d="M34.506 18.5148C34.5302 18.3431 34.7781 18.3009 34.8869 18.4154C35.0864 18.6263 35.3252 18.7769 35.5912 18.8854C35.8965 19.0089 36.096 18.9788 36.4074 18.9185C36.9848 18.81 37.3263 19.5391 36.8125 19.8735C35.8572 20.4911 34.3397 19.6687 34.506 18.5148Z" fill="#ED6A56"/>
<path d="M28.5299 19.4517C28.6085 19.283 28.805 19.2198 28.9743 19.1896C29.1647 19.1565 29.3552 19.1384 29.5486 19.1294C29.8811 19.1143 29.9386 19.6144 29.6272 19.6988C29.328 19.7801 28.811 19.9579 28.5632 19.6927C28.4997 19.6235 28.4936 19.5361 28.5329 19.4517H28.5299Z" fill="#ED6A56"/>
<path d="M36.0993 17.9424C36.1234 17.9273 36.1506 17.9183 36.1748 17.9062C36.1748 17.9062 36.1839 17.9032 36.196 17.8972C36.2323 17.8791 36.2655 17.858 36.2988 17.8369C36.3502 17.8068 36.3955 17.7556 36.4681 17.7285C36.5134 17.6833 36.5708 17.6562 36.6404 17.6743C36.7099 17.6923 36.7734 17.7676 36.7673 17.843C36.7673 17.855 36.7673 17.8641 36.7643 17.8761C36.7794 17.9333 36.7794 17.9846 36.7552 18.0508C36.725 18.1262 36.6917 18.1924 36.6373 18.2557C36.5376 18.3762 36.3925 18.4455 36.2414 18.4606C36.1265 18.4726 35.9965 18.3642 35.9723 18.2557C35.9451 18.1352 35.9904 18.0057 36.0993 17.9424Z" fill="#ED6A56"/>
<path d="M36.1748 17.9092C36.1748 17.9092 36.1748 17.9092 36.1899 17.9032C36.1839 17.9032 36.1809 17.9092 36.1748 17.9092Z" fill="#ED6A56"/>
<path d="M29.7029 21.3889C30.3739 20.4369 32.2148 20.6207 33.1852 20.7171C33.7565 20.7743 33.7444 21.7082 33.1852 21.6299C32.7317 21.5697 32.2843 21.5275 31.8279 21.5365C31.0631 21.5516 30.5493 21.5154 30.1563 22.362C29.7966 23.1453 29.7331 24.1937 29.7512 25.0433C29.7844 26.6822 30.2802 28.5802 31.976 29.1345C33.7474 29.7129 35.0563 28.4325 35.7637 26.9172C35.9269 26.5707 36.0599 26.2062 36.1687 25.8356C36.205 25.6187 36.2352 25.3988 36.2503 25.1728C36.2927 24.6095 36.2836 24.037 36.2655 23.4707C36.2534 23.1302 36.2352 22.7868 36.208 22.4494C36.202 22.3771 36.1627 21.9402 36.069 21.645C35.945 21.5275 35.7848 21.4763 35.5823 21.5245C35.2044 21.6148 34.8991 21.1358 35.1923 20.8406C35.5944 20.4369 36.202 20.4399 36.598 20.8707C36.734 21.0183 36.8277 21.2051 36.8942 21.413C37.532 22.609 37.2751 24.9439 37.0635 25.8537C36.5194 28.1674 34.9505 30.5655 32.3388 30.2612C29.8026 29.966 28.799 27.3661 28.8171 25.0463C28.8262 23.8804 29.0197 22.362 29.7059 21.3919L29.7029 21.3889Z" fill="#824737"/>
<path d="M35.014 25.3355C34.612 25.8416 34.0165 26.2273 33.3696 26.2333C32.2421 26.2423 31.441 25.1728 30.8878 24.1937C30.5281 23.552 30.1805 22.7807 30.4858 22.1119C30.5704 21.9282 30.7215 21.7564 30.921 21.7353C31.0933 21.7173 31.2536 21.8167 31.4017 21.9101C31.9005 22.2204 32.4385 22.4885 33.022 22.5729C33.9409 22.7054 34.9475 21.5727 35.6972 22.1059C36.6071 22.7566 35.5098 24.7119 35.014 25.3355Z" fill="#E0E9ED"/>
<path d="M32.5383 26.8358C32.8557 26.9081 33.1036 26.8961 33.418 26.8057C33.9258 26.6551 34.222 27.3811 33.7747 27.6462C33.3424 27.9023 32.7499 27.9746 32.2723 27.7999C31.6708 27.583 31.9005 26.6882 32.5383 26.8358Z" fill="#EF8B46"/>
<path d="M71.0978 15.3696C65.5175 16.0203 59.9555 16.8066 54.4176 17.7285C53.9249 17.5176 53.3324 17.2555 52.8759 16.9934C47.8277 17.4754 42.834 17.9966 37.7858 18.4817C37.547 17.7285 37.4079 16.9482 37.3535 16.1649C42.1327 15.3063 47.1204 14.532 51.9388 13.8964C52.4074 13.5439 52.8638 13.1462 53.3324 12.7937C58.9519 11.9351 64.6863 10.9921 70.3209 10.239L71.0947 15.3696H71.0978Z" fill="#335C64"/>
<path d="M38.0368 15.478C38.3844 15.71 38.4479 16.0625 38.3119 16.3848C38.2998 16.6228 38.4509 16.9813 38.4962 17.2073C38.5597 17.5327 38.6353 17.855 38.723 18.1744C38.8408 18.5931 38.6927 19.048 38.1637 19.2318C37.7133 19.3885 37.0634 19.2198 36.9274 18.801C36.752 18.2617 36.6009 17.7164 36.477 17.1681C36.353 16.6198 36.2261 16.1227 36.6523 15.6317C36.9697 15.2641 37.6468 15.2189 38.0398 15.481L38.0368 15.478Z" fill="#507282"/>
<path d="M70.1667 15.484C69.8342 13.7879 69.5017 12.0918 69.1692 10.3956C69.5531 10.3414 69.94 10.2872 70.3239 10.236L71.0978 15.3666C70.7864 15.4027 70.4781 15.4449 70.1667 15.481V15.484Z" fill="#507282"/>
<path d="M53.3355 12.7937C53.5924 12.7546 53.8494 12.7154 54.1033 12.6762C54.2665 14.3543 54.6655 16.0083 55.2913 17.5899C55.0101 17.6351 54.729 17.6773 54.4509 17.7255C53.8826 16.1559 53.4564 14.5441 53.1843 12.9082C53.2327 12.869 53.2841 12.8299 53.3324 12.7937H53.3355Z" fill="#507282"/>
<path d="M41.9604 13.586C42.7433 12.7214 44.3364 12.8811 45.2372 13.565C46.2317 14.3211 47.0146 15.5232 47.0449 16.8608C47.0691 17.8972 46.531 18.9637 45.7269 19.4547C45.8055 20.8978 44.2306 23.0097 43.363 23.9828C43.0517 24.3323 43.898 28.6585 44.3303 31.0355C42.6949 31.9513 40.6062 32.337 38.7108 32.1532C38.7955 28.9929 38.9738 25.8356 39.3547 22.6904C38.8861 21.88 38.4297 20.9249 38.2634 19.982C37.7888 17.2675 39.5179 14.282 41.9634 13.586H41.9604Z" fill="#F3AC71"/>
<path d="M37.9885 30.4842C37.9764 30.6649 37.6469 30.683 37.6136 30.5053C39.8687 30.2311 42.0784 29.5894 44.1279 28.6133C44.5118 28.4295 44.9955 28.2458 45.328 28.5079C45.1345 35.3948 47.4107 41.5588 47.4863 48.4488C47.4954 49.2472 47.4682 50.0666 47.1689 50.8047C46.8696 51.5458 46.2409 52.1996 45.4489 52.3201C44.9773 52.3924 44.4967 52.2749 44.0342 52.1574C41.9665 51.6332 39.8989 51.112 37.8313 50.5878C37.2448 61.6293 40.4974 72.2972 39.8747 83.3356C38.4751 84.8691 36.075 85.0619 34.0164 85.3451C30.4585 85.8331 26.8704 86.2609 23.2823 86.0892C19.6941 85.9175 16.0788 85.1161 12.9894 83.2904C14.1411 71.5349 13.6726 59.7072 12.8775 47.9216C12.5994 43.8123 12.2337 39.5162 13.8448 35.7202C14.6429 33.8403 15.9004 32.1773 17.3665 30.7553C19.1349 29.0411 21.5774 27.589 23.9594 28.2277C25.4648 28.6344 26.6255 29.7973 27.7077 30.915C31.1749 34.491 34.6391 38.0641 38.1063 41.6401C37.6348 38.0219 38.457 34.0964 37.9854 30.4812L37.9885 30.4842Z" fill="#577483"/>
<path d="M13.5969 9.82924C18.7479 4.51488 26.3897 2.59882 33.6113 0.917743C35.1983 0.547183 36.8216 0.227837 38.3663 0.746018C38.2816 3.84606 37.9854 7.26847 37.9008 10.3685C35.7848 11.6459 33.3755 12.3358 30.9965 13.0106C28.5268 13.7126 26.0571 14.4145 23.5875 15.1165C21.5621 15.6919 19.4915 16.2734 17.3876 16.1438C17.6657 16.1408 17.9438 16.1348 18.2249 16.1318L13.5969 9.83226V9.82924Z" fill="#E2E3E4"/>
<path d="M16.8224 8.41931C22.6747 5.89168 28.6448 3.63217 34.7057 1.65886C33.9439 0.366421 32.4597 -0.0312532 30.9573 0.00188628C28.4483 0.0561145 25.9182 0.273029 23.5332 1.04428C21.1451 1.81251 18.8961 3.17424 17.4028 5.18068C16.6652 6.17185 15.9941 7.50647 16.8254 8.42232L16.8224 8.41931Z" fill="#C7C8CA"/>
<path d="M19.1589 40.7423C22.1153 43.8966 26.042 45.9452 29.8901 47.9306C30.4977 48.2439 31.1174 48.5633 31.7915 48.6717C30.673 49.5665 28.817 49.4189 27.4174 49.0965C23.3788 48.1656 19.9177 44.8064 19.1589 40.7423Z" fill="#44616D"/>
</svg>
