<svg width="124" height="189" viewBox="0 0 124 189" fill="none" xmlns="http://www.w3.org/2000/svg">
<path d="M51.2811 56.2793L39.8503 90.116C39.8503 90.116 44.3317 90.8472 46.2523 90.7928C56.262 90.4967 64.2166 89.8954 64.2166 89.8954L70.0412 65.9961L51.2841 56.2823L51.2811 56.2793Z" stroke="#FDE6D4" stroke-miterlimit="10"/>
<path d="M51.2811 56.2793L39.8503 90.116L65.6286 91.5179L70.0382 65.9931L51.2811 56.2793Z" fill="#FDE6D4"/>
<path d="M40.8141 90.264C40.8141 90.264 44.8767 90.835 46.2498 90.7897C47.6229 90.7444 58.4255 90.264 58.4255 90.264L63.7804 89.9286L63.6876 94.926L63.3406 95.9019C63.3406 95.9019 55.9126 98.8689 37.6641 97.5304L40.8141 90.264Z" fill="#FD5E1A"/>
<path d="M52.2449 136.613V147.943C52.2449 147.943 52.2 151.351 56.804 153.677L58.4135 187.998C58.4135 187.998 59.5652 189.004 60.4088 187.998L63.9389 153.134C63.9389 153.134 67.9386 150.577 67.8548 147.477L67.7202 136.153L52.2449 136.613Z" fill="#010543"/>
<path d="M11.6855 113.83C11.6855 113.83 7.59006 117.22 0.036377 118.93V121.562C0.036377 121.562 17.1571 123.798 20.1875 121.562L11.6855 113.83Z" fill="#94B1DB"/>
<path d="M40.802 123.59L47.904 122.895V107.422H41.1371L40.802 123.59Z" fill="#010543"/>
<path d="M71.0295 89.3905L73.701 93.9014L71.0295 95.6297V89.3905Z" fill="#94B1DB"/>
<path d="M21.9397 122.527L20.2494 137.833L13.7488 151.42L27.0522 158.291L35.6679 143.024L44.7383 108.67L46.4017 112.03C46.4017 112.03 47.4607 124.092 48.9714 126.077C48.9714 126.077 50.3565 132.271 52.2412 136.612C53.0698 138.519 53.9942 140.069 54.9396 140.579C54.9396 140.579 64.5425 143.024 67.7165 136.153C67.7165 136.153 68.0187 134.322 67.7165 130.503L63.3399 95.902L37.6633 97.5305L21.9397 122.527Z" fill="#82A1BE"/>
<path d="M71.0767 88.1851L75.3606 95.6238C75.7195 96.2463 76.2072 96.7841 76.7995 97.1829C78.6363 98.4247 82.7168 100.349 85.861 95.7628C85.861 95.7628 90.1449 90.3575 88.4337 84.3691" stroke="#778BAC" stroke-width="4" stroke-miterlimit="10" stroke-linecap="round"/>
<path d="M57.7471 32.9631L58.1689 30.8088C58.1689 30.8088 51.2285 32.0808 44.4257 38.2083C37.6199 44.3357 35.6245 49.3542 35.6245 49.3542C35.6245 49.3542 30.0094 66.4795 28.6572 68.6066C27.308 70.7337 24.6605 76.1873 23.0421 78.3688C21.4236 80.5502 20.6667 85.2968 20.6667 85.2968C20.6667 85.2968 20.0176 91.1342 19.5329 93.5332C19.5329 93.5332 16.8854 100.407 14.5639 104.005C14.5639 104.005 12.2425 108.151 11.9733 110.822C11.704 113.493 11.5425 115.677 11.5425 115.677C11.5425 115.677 29.794 130.24 32.8184 122.931C32.8184 122.931 34.383 119.714 35.3553 109.568C35.3553 109.568 36.2737 99.6969 41.0781 89.7141C41.0781 89.7141 47.4502 76.7342 48.6378 68.1715C48.6378 68.1715 49.287 65.3888 50.4208 63.153C51.5546 60.9171 51.2853 56.2793 51.2853 56.2793L68.3342 68.4283C68.3342 68.4283 63.5029 78.0908 63.6943 94.9261C63.6943 94.9261 62.5725 95.1013 63.0362 96.5637C63.0362 96.5637 66.1025 118.001 66.5632 121.62C66.5632 121.62 73.04 121.037 73.6772 117.239C73.6772 117.239 73.9075 100.827 71.7686 95.2191C71.7686 95.2191 68.8757 87.8016 74.5447 75.1842C74.5447 75.1842 74.9486 72.7308 74.6614 70.1596C74.6614 70.1596 79.1996 70.0659 80.8031 65.5187C80.8031 65.5187 82.1822 63.5578 83.3339 57.2975C83.3339 57.2975 92.8979 64.5428 95.7309 61.5003C95.7309 61.5003 98.6537 59.4427 99.5392 55.3275C100.425 51.2124 101.843 42.8945 101.843 42.8945L93.1642 41.1964L90.9504 49.0672L84.1327 44.6831L74.6973 35.8485L57.7561 32.9571L57.7471 32.9631Z" fill="#010644"/>
<path d="M44.4695 20.4846L65.8741 1.17477C65.8741 1.17477 66.9391 -0.49002 68.0549 1.17477C68.0549 1.17477 69.2785 1.49807 70.2896 0.960256C70.2896 0.960256 71.2469 -0.789138 72.5243 0.43453C72.5243 0.43453 82.6806 9.12409 84.8346 19.5177L44.4695 20.4846Z" fill="#D3481A"/>
<path d="M57.7458 32.9632C57.7458 32.9632 53.2406 36.7128 53.7072 37.8941L71.5728 54.3245L77.5799 39.3686C77.5799 39.3686 75.6294 36.5164 73.6789 36.045L57.7429 32.9632H57.7458Z" fill="#FDE6D4"/>
<path d="M58.6047 25.3427C58.6047 25.3427 59.0355 28.0378 58.1171 30.0652C57.8987 30.5456 57.8179 31.0774 57.8508 31.6031C57.8747 31.9808 57.8628 32.4582 57.7461 32.9627C57.5546 33.8057 57.082 34.7333 56.02 35.4373C56.02 35.4373 55.4815 39.2261 57.5247 39.3681H66.1613C66.1613 39.3681 67.8665 38.6792 67.1845 36.528C66.5024 34.3767 61.6441 25.1222 58.6047 25.3427Z" fill="#FE9885"/>
<path d="M84.8346 19.5172C59.867 31.6572 44.4695 20.484 44.4695 20.484C44.4695 20.484 64.4291 9.85474 70.3165 5.52809C70.5798 5.33472 70.9178 5.28033 71.223 5.38608C73.1645 6.05079 80.2156 9.10845 84.8346 19.5172Z" fill="#FB611A"/>
<path d="M98.0095 28.9418L98.2847 26.4914C98.2847 26.4914 97.0313 25.4369 97.0761 23.5032L98.4612 18.2943V16.8712C98.4612 16.8712 99.2211 14.5689 99.936 16.8712L100.16 19.1282L100.475 18.2943V16.6446C100.475 16.6446 101.324 15.3787 101.728 16.7353V19.3095L102.042 18.2279C102.042 18.2279 101.952 17.2761 102.311 17.3668C102.311 17.3668 103.161 16.9166 103.026 18.5421L103.041 23.0591L103.565 24.8387C103.565 24.8387 102.984 25.8146 102.311 25.9959L102.374 29.54L98.0125 28.9448L98.0095 28.9418Z" fill="#FE9A84"/>
<path d="M74.7707 18.125C74.7707 18.125 74.301 21.9411 74.1874 22.4003C74.0737 22.8596 72.4941 26.1801 72.4941 26.1801L64.387 23.4065L63.1455 17.1129L67.7076 13.6836H72.8472L75.3511 15.4632L74.7707 18.122V18.125Z" fill="#FE9885"/>
<path d="M74.7541 18.0215C74.7541 18.0215 75.8221 12.858 68.7381 14.0454C68.421 14.0997 68.1248 14.2538 67.9035 14.4895C67.1825 15.2539 65.4205 17.0909 64.2119 18.1122C64.0025 18.2904 63.8828 18.5503 63.8948 18.8282C63.9456 20.0398 64.4901 23.2788 68.8637 23.874C74.2665 24.6112 74.1678 22.2998 74.1678 22.2998L74.2815 21.8406L74.808 25.0735C74.808 25.0735 75.7144 25.4995 75.5499 26.5389C75.5499 26.5389 75.5499 27.4483 76.1362 28.4031C76.3277 28.7143 76.3337 29.1071 76.1512 29.4243C75.9507 29.7748 75.6456 30.225 75.2268 30.6117C74.9935 30.8262 74.9187 31.1677 75.0293 31.4668C75.4422 32.5907 76.1961 35.1801 74.6823 35.8569C74.6823 35.8569 70.6497 38.5066 69.5937 38.1803C68.5377 37.854 68.2535 37.0685 64.8042 37.0594C64.8042 37.0594 63.7273 36.9657 63.4281 35.4822C63.3772 35.2314 63.2127 35.0139 62.9764 34.9202C61.8426 34.4731 58.7074 32.9775 59.8233 30.4999C59.8233 30.4999 61.5554 27.684 59.8502 26.5087C59.8502 26.5087 57.5138 24.2335 56.5236 22.5627C56.1586 21.9463 56.1586 21.1789 56.5056 20.5535C57.8638 18.1031 62.6144 11.0602 71.7416 12.4501C71.963 12.4833 72.1874 12.5135 72.4117 12.5316C73.6921 12.6404 78.8376 13.3686 74.7452 18.0185L74.7541 18.0215Z" fill="#010646"/>
<path d="M66.9306 20.3971C67.1486 20.3971 67.3254 20.04 67.3254 19.5994C67.3254 19.1589 67.1486 18.8018 66.9306 18.8018C66.7125 18.8018 66.5356 19.1589 66.5356 19.5994C66.5356 20.04 66.7125 20.3971 66.9306 20.3971Z" fill="#33050F"/>
<path d="M73.1405 20.3965C73.3983 20.3965 73.6072 20.1422 73.6072 19.8285C73.6072 19.5148 73.3983 19.2604 73.1405 19.2604C72.8828 19.2604 72.6738 19.5148 72.6738 19.8285C72.6738 20.1422 72.8828 20.3965 73.1405 20.3965Z" fill="#33050F"/>
<path d="M69.0561 17.2199L67.1019 16.4941C66.9794 16.4486 66.8436 16.512 66.7986 16.6357L66.7562 16.752C66.7112 16.8757 66.774 17.0129 66.8965 17.0584L68.8507 17.7842C68.9732 17.8297 69.109 17.7663 69.154 17.6425L69.1964 17.5263C69.2414 17.4025 69.1786 17.2654 69.0561 17.2199Z" fill="#33050F"/>
<path d="M74.1373 17.7898L72.0986 18.217C71.9708 18.2438 71.8887 18.3701 71.9152 18.4992L71.9401 18.6205C71.9666 18.7496 72.0917 18.8325 72.2195 18.8057L74.2582 18.3786C74.386 18.3518 74.4682 18.2254 74.4416 18.0964L74.4167 17.9751C74.3902 17.846 74.2651 17.7631 74.1373 17.7898Z" fill="#33050F"/>
<path d="M60.7353 19.4869C60.7263 19.2875 60.5767 19.1213 60.3793 19.0941C59.6882 18.9944 58.1954 19.07 58.1655 21.5385C58.1655 21.5385 58.4109 23.9012 59.6883 23.9012C59.6883 23.9012 60.825 23.6716 61.19 22.2455C61.2289 22.0884 61.2139 21.9222 61.1422 21.7802C61.0105 21.5173 60.8011 20.8828 60.7323 19.4899L60.7353 19.4869Z" fill="#FE9885"/>
<path d="M58.2378 22.8529C58.2378 22.8529 57.0142 23.439 57.7232 24.6446C58.4322 25.8501 59.91 26.2096 60.7058 25.3395C61.5015 24.4693 61.34 23.291 60.8374 23.0493" stroke="#F4DB9A" stroke-width="2" stroke-miterlimit="10" stroke-linecap="round"/>
<path d="M67.6418 25.1161L69.5264 25.6177L68.5153 26.1585C68.273 26.2884 67.9768 26.1857 67.8631 25.9349L67.546 25.2309C67.5161 25.1675 67.5759 25.098 67.6418 25.1161Z" fill="#EAF5FE"/>
<path d="M77.583 33.9391C77.583 33.9391 77.8463 31.954 80.796 32.3528L86.3992 33.1173C86.3992 33.1173 88.3736 33.3137 88.4334 35.3078V45.2754C88.4334 45.2754 87.8172 47.2061 85.412 46.5837L75.3513 43.9671C75.3513 43.9671 74.6663 43.1574 75.3513 41.2267L77.583 33.9391Z" fill="#27357A"/>
<path d="M93.5562 30.3585C93.5562 30.3585 93.8194 28.3735 96.7691 28.7723L102.372 29.5367C102.372 29.5367 104.347 29.7331 104.407 31.7272V41.6948C104.407 41.6948 103.79 43.6255 101.385 43.0031L91.3245 40.3866C91.3245 40.3866 90.6394 39.5768 91.3245 37.6461L93.5562 30.3585Z" fill="#27357A"/>
<path d="M78.6328 23.5031C76.4669 21.7657 78.6328 19.5994 78.6328 19.5994H87.0361L86.5275 23.1828L78.6328 23.5031Z" fill="#80B0CE"/>
<path d="M87.0371 19.5993C87.0371 19.5993 87.9944 18.2306 90.0257 18.2971H120.994V24.8384H87.0371V19.5993Z" fill="#80A2BE"/>
<path d="M81.1159 32.3012L81.7382 29.742L79.4825 23.9017C79.4825 23.9017 79.2821 22.2248 80.3979 23.3095L81.433 25.1737C81.433 25.1737 83.3536 18.587 83.8203 18.0039C84.2869 17.4207 84.616 18.0039 84.616 18.0039L83.6617 23.2309C83.6617 23.2309 85.4537 18.5991 86.0101 18.8045C86.5665 19.01 85.334 22.8563 85.334 22.8563L87.4819 20.3968C87.4819 20.3968 88.4781 20.418 88.158 21.2609C87.8409 22.1039 86.7251 23.9017 86.7251 23.9017C86.7251 23.9017 88.6756 22.1039 89.0735 22.6689C89.4713 23.2339 87.9576 24.6782 87.9576 24.6782L85.5973 33.0112L81.1129 32.3012H81.1159Z" fill="#FE9A84"/>
<path d="M121.538 24.9286C122.898 24.9286 124 23.4284 124 21.5778C124 19.7273 122.898 18.2271 121.538 18.2271C120.178 18.2271 119.076 19.7273 119.076 21.5778C119.076 23.4284 120.178 24.9286 121.538 24.9286Z" fill="#83DFFC"/>
<path d="M42.8088 50.1701L68.3268 68.4285C68.3268 68.4285 73.7565 71.7822 77.5797 69.3228C81.4029 66.8634 83.3235 57.3006 83.3235 57.3006L85.4086 46.5837" stroke="#27357A" stroke-width="2" stroke-miterlimit="10" stroke-linecap="round"/>
<path d="M51.5034 35.9234L71.5738 54.3237L75.3522 44.9211" stroke="#27357A" stroke-width="2" stroke-miterlimit="10" stroke-linecap="round"/>
<path d="M51.7337 100.394C55.1719 100.394 57.9592 97.5791 57.9592 94.1065C57.9592 90.634 55.1719 87.819 51.7337 87.819C48.2955 87.819 45.5083 90.634 45.5083 94.1065C45.5083 97.5791 48.2955 100.394 51.7337 100.394Z" fill="#FFD76A"/>
<path d="M13.7534 151.42C13.7534 151.42 12.3713 150.979 11.2495 152.979L6.51386 160.285C6.51386 160.285 5.73905 161.938 7.37543 162.808L21.4986 169.766C21.4986 169.766 23.479 170.549 24.2538 168.549L27.353 159.85C27.353 159.85 28.1877 158.874 27.0539 158.288L13.7504 151.417L13.7534 151.42Z" fill="#27357A"/>
<path d="M9.69661 163.956L2.85791 182.746C2.85791 182.746 2.34936 183.945 1.75404 184.202L1.07495 189H14.4831C14.4831 189 16.7747 188.057 16.2661 186.77C15.7575 185.483 11.5993 184.713 11.5993 184.713L9.81628 184.199L18.8717 168.473L9.69661 163.953V163.956Z" fill="#010543"/>
<path d="M72.9023 90.1945L74.6285 92.8111L89.1136 83.9523C89.1136 83.9523 90.1756 81.2723 87.3875 80.8342L72.9023 90.1945Z" fill="#010543"/>
<path d="M13.2107 118.991C8.86995 119.997 4.47836 120.913 0 120.876L0.0777835 119.671C3.3326 119.955 6.64423 119.619 9.88409 119.221C10.976 119.079 12.0709 118.918 13.1539 118.731L13.2077 118.991H13.2107Z" fill="#7DA1C9"/>
</svg>
