<svg width="20" height="20" viewBox="0 0 20 20" fill="#3B60BC" xmlns="http://www.w3.org/2000/svg">
<path d="M1.988 12.0446L5.61516 8.41824C5.61516 8.41824 6.28492 7.5903 7.11303 8.41824L7.70412 9.08786L8.25586 8.57557C8.25586 8.57557 8.92562 8.29926 9.32 8.69356L9.67506 9.04853L10.9369 7.86563C10.9369 7.86563 8.49288 4.55487 11.6066 1.40145C13.1655 -0.176738 14.8522 -0.174771 16.1485 0.21953C17.7703 0.713144 19.0822 1.94423 19.6763 3.53127C20.3175 5.24318 20.3077 7.7319 16.771 10.0308C16.771 10.0308 20.5555 5.06619 17.3621 2.22938C17.3621 2.22938 14.6417 0.0218875 12.1977 2.74168C9.75373 5.46147 13.1045 8.25993 13.1045 8.25993L10.9939 10.3091L11.4886 10.9001C11.4886 10.9001 11.9184 11.728 10.9939 12.3583L11.7247 13.1076C11.7247 13.1076 12.3944 13.6592 11.8427 14.1715L8.01883 17.9945C8.01883 17.9945 8.09752 18.8225 7.34907 19.2561L6.6793 19.9257C6.6793 19.9257 6.16691 20.202 5.6545 19.6888L0.0564041 14.0132C0.0564041 14.0132 -0.219959 13.6582 0.450789 12.9886C1.12055 12.319 1.31824 12.1607 1.988 12.0427V12.0446Z" fill="#3B60BC"/>
</svg>
