<svg width="17" height="20" viewBox="0 0 17 20" fill="#3B60BC" xmlns="http://www.w3.org/2000/svg">
<path d="M15.2854 7.78927C15.2854 7.78927 14.005 9.1866 11.6679 9.33271C10.1732 9.42635 9.37129 10.2763 8.98645 10.8762C8.80963 11.1519 8.6921 11.4616 8.63593 11.7847C7.471 18.4915 2.57517 20 2.57517 20C-1.37104 19.0019 0.292117 14.7831 0.671759 13.9332C0.707123 13.854 0.803852 13.8231 0.877701 13.8663C3.54456 15.4314 5.80369 12.7479 6.63267 11.5553C6.91246 11.154 7.04248 10.6673 6.99151 10.1826C6.91663 9.47368 6.58691 8.46118 5.43238 7.72033C3.46864 6.45984 3.04322 4.62108 3.04322 4.62108C3.04322 4.62108 2.40668 2.3625 4.74278 0C4.74278 0 4.47651 3.83392 6.75957 4.46365C8.88349 5.05016 9.16952 5.95462 9.19864 6.07707C9.28809 5.98035 9.98809 5.33518 12.1234 5.85275C14.4252 6.40942 16.0925 2.93872 16.0925 2.93872C16.959 6.13058 15.2854 7.7903 15.2854 7.7903V7.78927Z" fill="#3B60BC"/>
</svg>
