<svg width="556" height="375" viewBox="0 0 556 375" fill="none" xmlns="http://www.w3.org/2000/svg">
<path d="M359.897 357.385C358.305 343.83 363.258 330.258 370.223 318.53C374.841 310.752 380.532 303.362 388.177 298.551C397.298 292.809 408.587 291.201 419.288 292.444C429.989 293.688 440.212 297.585 449.955 302.188C458.218 289.755 472.217 282.324 487.051 280.942C507.173 279.074 527.422 289.374 539.795 305.403C552.163 321.433 557.075 342.494 555.61 362.705C490.793 363.416 424.719 358.518 359.902 357.385H359.897Z" fill="#869ACF"/>
<path d="M429.845 282.482C434.689 290.352 444.53 293.07 452.764 297.239C455.347 298.546 458.212 300.819 457.653 303.67C442.945 304.942 428.404 299.523 413.742 301.276C412.341 301.443 413.315 299.425 413.609 298.043C414.803 292.376 416.452 286.801 418.533 281.394C419.219 279.608 420.182 277.63 422.021 277.109C423.163 276.786 424.397 277.132 425.464 277.659C427.643 278.74 428.571 280.411 429.845 282.487V282.482Z" fill="#1A1A1A"/>
<path d="M327.485 335.305C332.328 343.175 342.17 345.893 350.403 350.062C352.986 351.369 355.852 353.642 355.292 356.493C340.584 357.765 326.043 352.347 311.381 354.099C309.98 354.267 310.96 352.248 311.249 350.866C312.442 345.199 314.091 339.625 316.173 334.218C316.859 332.431 317.821 330.453 319.661 329.933C320.802 329.609 322.036 329.956 323.103 330.482C325.282 331.563 326.211 333.235 327.485 335.311V335.305Z" fill="#1A1A1A"/>
<path d="M371.63 151.765C391.221 166.297 418.822 165.002 439.474 177.978C442.236 179.713 444.917 181.766 446.548 184.594C449.65 189.966 448.318 196.697 447.004 202.763C441.238 229.376 437.589 256.451 436.107 283.641C426.397 285.74 417.42 287.712 407.648 285.937C412.912 257.509 417.841 229.931 423.105 201.503C422.385 199.808 421.883 198.38 420.136 197.813C403.156 192.349 381.293 184.316 364.313 178.857C344.405 227.947 338.801 282.647 337.301 335.622C326.716 338.572 315.842 337.901 306 333.003C321.509 281.328 320.391 225.241 328.63 171.912C329.806 164.314 331.605 155.963 337.803 151.435C342.214 148.209 347.956 147.636 353.393 147.174C359.903 146.618 366.372 147.879 371.624 151.777L371.63 151.765Z" fill="#E2E3E4"/>
<path d="M357.759 75.2627C357.131 77.969 360.434 79.9352 363.219 80.9934C374.75 85.3767 386.535 89.1876 398.505 92.4144C400.701 93.0042 403.002 93.5825 405.245 93.1777C408.744 92.5532 411.327 89.6097 412.29 86.4523C413.253 83.295 412.89 79.9409 412.429 76.691C411.039 66.9239 407.701 58.0879 404.651 48.6446C400.367 51.6574 395.541 54.011 390.421 55.5781C392.474 61.997 395.086 67.6352 397.334 74.002C388.761 67.4559 379.086 62.1358 368.754 58.2787C363.969 56.4918 358.059 55.1502 353.994 58.0821C349.86 61.0602 350.039 67.1899 352.956 71.2032C354.063 72.7298 355.874 74.6381 357.753 75.2569L357.759 75.2627Z" fill="#335C64"/>
<path d="M401.941 42.7911C401.514 43.5139 400.234 44.0517 400.038 43.2306C401.56 46.5672 403.157 49.8692 404.732 53.1769C403.463 54.2294 402.131 55.2183 400.592 56.0336C398.914 56.9242 397.132 57.6123 395.299 58.1154C394.209 53.0671 393.281 47.984 392.687 42.8374C391.476 41.6808 390.219 40.2756 389.516 38.7547C387.487 34.3887 389.424 28.5886 393.673 26.3333C394.763 24.5291 397.778 24.0896 399.738 24.8472C401.906 25.6799 403.867 27.3627 404.489 29.6006C404.968 31.3354 404.426 33.371 403.14 34.5564C403.895 36.9505 403.134 40.7556 401.941 42.7795V42.7911Z" fill="#F3AC71"/>
<path d="M341.496 63.3403C342.914 60.4778 343.796 57.384 345.232 54.5273C346.333 52.3356 347.446 50.0977 347.763 47.6632C348.069 45.3096 347.596 42.9097 347.827 40.5446C343.226 39.5846 339.761 35.288 339.761 30.5693C339.761 30.2397 339.778 29.8985 339.905 29.5978C340.124 29.0831 340.631 28.7477 341.156 28.5511C342.851 27.9266 344.938 28.6725 345.861 30.2281C345.624 27.9902 345.422 25.7869 345.192 23.5548C350.836 21.6465 356.636 20.2124 362.523 19.2698C367.366 18.4949 372.469 18.0843 377.053 19.8365C377.197 19.8943 377.375 19.9926 377.352 20.1487C377.329 20.3049 377.485 21.0508 377.618 20.9699C373.328 29.9563 378.027 41.0072 374.896 50.462C374.297 52.2836 373.357 54.0647 371.817 55.2039C368.952 57.3262 364.968 56.6438 361.509 55.7995C360.407 61.9871 359.416 68.1631 358.931 74.4316C358.833 75.7327 358.02 76.7331 356.746 76.9934C355.478 77.2594 354.169 76.8141 352.981 76.2821C347.631 73.8591 343.272 69.2502 341.277 63.7103C341.219 63.5542 341.185 63.346 341.323 63.2535C341.392 63.2072 341.456 63.2709 341.484 63.3345L341.496 63.3403Z" fill="#F3AC71"/>
<path d="M357.246 48.7889C357.817 49.587 357.321 50.784 356.479 51.2929C355.637 51.8018 354.605 51.8076 353.625 51.796C353.504 51.0327 353.596 50.2346 353.896 49.5234C353.348 50.3387 352.022 50.466 351.33 49.772C350.638 49.0781 350.765 47.748 351.578 47.1987C350.731 47.8753 349.318 47.0541 349.214 45.9727C349.11 44.8914 349.981 43.9025 350.996 43.5266C350.16 43.6134 349.301 42.9888 349.134 42.1619C348.966 41.335 349.503 40.4213 350.304 40.1668C348.874 35.6158 346.896 31.2382 344.429 27.1556C343.777 26.0742 344.383 24.5881 345.409 23.8536C346.989 22.726 351.267 21.8065 352.431 23.9519C353.262 25.4902 351.797 28.9425 351.728 30.6368C351.48 37.0384 353.498 43.6018 357.24 48.7889H357.246Z" fill="#824737"/>
<path d="M374.487 25.1337C375.715 24.7636 377.163 25.4517 377.658 26.6372C377.803 26.9842 377.722 27.3138 377.532 27.5451C377.543 27.6839 377.543 27.8285 377.532 27.9788C377.474 28.4472 376.742 28.4703 376.782 27.9788C376.782 27.9383 376.782 27.8978 376.782 27.8574C376.586 27.8227 376.402 27.7012 376.263 27.4584C375.923 26.8512 375.3 26.5563 374.758 26.6256C374.205 26.8974 373.922 27.4757 373.738 28.0829C373.536 28.7595 372.516 28.638 372.504 27.9152C372.487 26.7008 373.3 25.498 374.482 25.1395L374.487 25.1337Z" fill="#824737"/>
<path d="M362.934 26.8589C364.56 26.3963 366.359 26.9225 367.403 28.2583C367.847 28.825 367.184 29.4843 366.619 29.0448C365.552 28.2179 364.203 27.7957 362.929 28.4087C362.075 28.8135 361.758 29.8659 360.87 30.0915C360.588 30.1609 360.346 29.9989 360.248 29.7387C359.746 28.3913 361.873 27.1654 362.929 26.8647L362.934 26.8589Z" fill="#824737"/>
<path d="M372.591 32.2768C372.851 30.9699 374.54 30.2991 375.63 31.0508C375.982 31.2937 375.659 31.8662 375.29 31.6349C374.54 31.1607 373.525 31.6349 373.352 32.4908C373.254 32.9939 372.488 32.7799 372.591 32.2826V32.2768Z" fill="#B55232"/>
<path d="M362.801 32.9167C363.793 32.7721 365.436 32.8357 365.851 33.9345C365.955 34.2062 365.563 34.3219 365.413 34.1195C364.992 33.547 364.063 33.5817 363.429 33.5991C363.02 33.6106 362.53 33.6511 362.224 33.9692C361.93 34.2699 361.999 34.6053 361.913 34.9696C361.855 35.2067 361.521 35.305 361.354 35.1199C360.5 34.16 361.896 33.0497 362.801 32.9167Z" fill="#B55232"/>
<path d="M371.817 35.536C371.863 35.2064 372.336 35.1255 372.543 35.3452C372.924 35.75 373.379 36.0392 373.887 36.2473C374.469 36.4844 374.849 36.4266 375.443 36.3109C376.545 36.1028 377.196 37.5022 376.216 38.1441C374.394 39.3295 371.5 37.7508 371.817 35.536Z" fill="#ED6A56"/>
<path d="M360.418 37.3367C360.568 37.0128 360.943 36.8914 361.265 36.8336C361.629 36.77 361.992 36.7353 362.361 36.7179C362.995 36.689 363.105 37.649 362.511 37.8109C361.94 37.967 360.954 38.3082 360.481 37.7993C360.36 37.6663 360.349 37.4986 360.424 37.3367H360.418Z" fill="#ED6A56"/>
<path d="M374.854 34.4373C374.901 34.4084 374.952 34.3911 374.999 34.3679C374.999 34.3679 375.016 34.3622 375.039 34.3506C375.108 34.3159 375.172 34.2754 375.235 34.2349C375.333 34.1771 375.42 34.0788 375.558 34.0268C375.644 33.94 375.754 33.888 375.886 33.9227C376.019 33.9574 376.14 34.1019 376.129 34.2465C376.129 34.2696 376.129 34.287 376.123 34.3101C376.152 34.42 376.152 34.5183 376.106 34.6455C376.048 34.7901 375.984 34.9173 375.881 35.0387C375.69 35.2701 375.414 35.4031 375.125 35.432C374.906 35.4551 374.658 35.2469 374.612 35.0387C374.56 34.8074 374.647 34.5588 374.854 34.4373Z" fill="#ED6A56"/>
<path d="M374.997 34.3705C374.997 34.3705 374.997 34.3705 375.024 34.3599C375.013 34.3599 375.008 34.3705 374.997 34.3705Z" fill="#ED6A56"/>
<path d="M362.656 41.0545C363.936 39.2272 367.447 39.5799 369.298 39.765C370.388 39.8748 370.364 41.6675 369.298 41.5172C368.433 41.4015 367.58 41.3205 366.709 41.3379C365.25 41.3668 364.27 41.2974 363.521 42.9224C362.835 44.4259 362.713 46.4383 362.748 48.069C362.812 51.2149 363.757 54.858 366.992 55.922C370.37 57.0323 372.867 54.5746 374.216 51.6659C374.527 51.0009 374.781 50.3012 374.988 49.5899C375.058 49.1735 375.115 48.7514 375.144 48.3177C375.225 47.2363 375.208 46.1376 375.173 45.0504C375.15 44.397 375.115 43.7377 375.063 43.0901C375.052 42.9513 374.977 42.1128 374.798 41.5461C374.562 41.3205 374.256 41.2222 373.87 41.3148C373.149 41.4882 372.567 40.5688 373.126 40.0021C373.893 39.2272 375.052 39.233 375.807 40.0599C376.067 40.3432 376.245 40.7018 376.372 41.1008C377.589 43.3966 377.099 47.8782 376.695 49.6246C375.657 54.0658 372.665 58.6688 367.683 58.0848C362.846 57.5181 360.932 52.5275 360.967 48.0748C360.984 45.8369 361.353 42.9224 362.662 41.0603L362.656 41.0545Z" fill="#824737"/>
<path d="M372.787 48.6287C372.021 49.6002 370.885 50.3404 369.651 50.352C367.5 50.3693 365.972 48.3164 364.917 46.437C364.231 45.2053 363.568 43.7249 364.151 42.4411C364.312 42.0884 364.6 41.7588 364.981 41.7183C365.309 41.6836 365.615 41.8744 365.898 42.0537C366.849 42.6493 367.875 43.164 368.988 43.3259C370.741 43.5803 372.661 41.406 374.09 42.4296C375.826 43.6786 373.733 47.4317 372.787 48.6287Z" fill="#E0E9ED"/>
<path d="M368.063 51.5079C368.669 51.6466 369.141 51.6235 369.741 51.45C370.71 51.1609 371.275 52.5545 370.421 53.0634C369.597 53.5549 368.467 53.6937 367.556 53.3583C366.408 52.942 366.847 51.2245 368.063 51.5079Z" fill="#EF8B46"/>
<path d="M441.608 29.5001C430.965 30.7492 420.356 32.2585 409.794 34.028C408.854 33.6232 407.724 33.1201 406.853 32.617C397.225 33.5423 387.7 34.5427 378.071 35.4737C377.616 34.028 377.351 32.5303 377.247 31.0268C386.362 29.3787 395.876 27.8925 405.066 26.6723C405.96 25.9957 406.83 25.2324 407.724 24.5558C418.442 22.9077 429.38 21.0977 440.127 19.652L441.603 29.5001H441.608Z" fill="#335C64"/>
<path d="M378.55 29.7113C379.213 30.1566 379.334 30.8332 379.074 31.4519C379.051 31.9088 379.339 32.5969 379.426 33.0306C379.547 33.6552 379.691 34.2739 379.858 34.8869C380.083 35.6907 379.801 36.5639 378.792 36.9166C377.933 37.2173 376.693 36.8935 376.434 36.0897C376.099 35.0546 375.811 34.0079 375.574 32.9554C375.338 31.903 375.096 30.9488 375.909 30.0062C376.514 29.3007 377.806 29.214 378.555 29.7171L378.55 29.7113Z" fill="#507282"/>
<path d="M439.834 29.721C439.199 26.4653 438.565 23.2096 437.931 19.9539C438.663 19.8499 439.401 19.7458 440.133 19.6475L441.609 29.4955C441.016 29.5649 440.428 29.6459 439.834 29.7153V29.721Z" fill="#507282"/>
<path d="M407.731 24.5582C408.221 24.4831 408.711 24.4079 409.196 24.3327C409.507 27.5537 410.268 30.7284 411.462 33.7644C410.925 33.8511 410.389 33.9321 409.859 34.0246C408.775 31.0118 407.962 27.918 407.443 24.778C407.535 24.7028 407.633 24.6276 407.725 24.5582H407.731Z" fill="#507282"/>
<path d="M386.036 26.0779C387.53 24.4182 390.568 24.7247 392.286 26.0374C394.183 27.4889 395.676 29.7962 395.734 32.3638C395.78 34.353 394.754 36.4001 393.22 37.3427C393.37 40.1127 390.366 44.1664 388.712 46.0342C388.118 46.705 389.732 55.0091 390.557 59.5717C387.437 61.3297 383.453 62.0699 379.838 61.7171C380 55.651 380.34 49.5906 381.066 43.5534C380.173 41.9979 379.302 40.1647 378.985 38.3547C378.08 33.1444 381.378 27.4137 386.042 26.0779H386.036Z" fill="#F3AC71"/>
<path d="M378.458 58.516C378.435 58.863 377.807 58.8977 377.743 58.5565C382.044 58.0303 386.259 56.7985 390.168 54.9249C390.9 54.5722 391.823 54.2194 392.457 54.7225C392.088 67.9419 396.43 79.7735 396.574 92.9987C396.591 94.5311 396.539 96.104 395.968 97.5208C395.398 98.9434 394.198 100.198 392.688 100.43C391.788 100.568 390.872 100.343 389.989 100.117C386.046 99.1111 382.102 98.1106 378.158 97.1044C377.04 118.298 383.244 138.775 382.056 159.963C379.386 162.907 374.809 163.277 370.882 163.82C364.096 164.757 357.252 165.578 350.409 165.249C343.565 164.919 336.669 163.381 330.777 159.876C332.973 137.312 332.08 114.609 330.563 91.9867C330.033 84.099 329.335 75.8528 332.408 68.5665C333.93 64.958 336.329 61.7659 339.125 59.0365C342.498 55.7461 347.157 52.9588 351.7 54.1847C354.571 54.9654 356.785 57.1975 358.849 59.343C365.462 66.2071 372.07 73.0655 378.683 79.9296C377.784 72.9845 379.352 65.4496 378.452 58.5102L378.458 58.516Z" fill="#577483"/>
<path d="M331.934 18.8662C341.759 8.66536 356.334 4.98752 370.108 1.76074C373.135 1.04946 376.231 0.436477 379.177 1.43111C379.016 7.38158 378.451 13.9508 378.29 19.9013C374.254 22.3532 369.658 23.6774 365.121 24.9728C360.41 26.3202 355.7 27.6675 350.989 29.0149C347.126 30.1194 343.177 31.2355 339.164 30.9869C339.694 30.9811 340.225 30.9695 340.761 30.9637L331.934 18.872V18.8662Z" fill="#E2E3E4"/>
<path d="M338.086 16.1607C349.248 11.3089 360.635 6.97186 372.195 3.18414C370.742 0.703336 367.911 -0.0599898 365.046 0.00362068C360.26 0.107711 355.434 0.524074 350.885 2.00446C346.331 3.47907 342.041 6.09288 339.193 9.9442C337.786 11.8467 336.506 14.4085 338.091 16.1665L338.086 16.1607Z" fill="#C7C8CA"/>
<path d="M342.546 78.2025C348.185 84.257 355.675 88.1893 363.014 92.0002C364.173 92.6016 365.355 93.2145 366.641 93.4227C364.508 95.1402 360.967 94.8568 358.298 94.2381C350.595 92.4512 343.994 86.0034 342.546 78.2025Z" fill="#44616D"/>
<path d="M282.054 271.325C282.054 301.89 265.592 318.35 265.592 318.35C226.794 366.55 163.31 337.16 163.31 337.16C153.904 354.795 140.973 358.32 140.973 358.32C103.35 364.2 101 374.78 101 374.78C101 374.78 102.175 361.85 112.756 345.39C123.337 328.93 138.623 326.58 138.623 326.58C112.756 303.071 126.867 265.451 126.867 265.451C125.692 280.736 143.329 290.135 143.329 290.135C146.854 292.485 157.435 301.89 157.435 301.89C165.665 308.945 165.665 330.105 165.665 330.105C209.163 332.455 218.569 306.595 224.45 293.66C230.331 280.73 222.1 245.46 219.75 227.825C218.012 214.814 223.428 198.282 226.379 190.511C234.479 196.933 257.252 211.54 280.447 195.463C280.081 196.982 279.704 197.26 279.704 197.26L282.054 271.32V271.325Z" fill="#28A555"/>
<path d="M172.536 110.844L167.038 118.653L166.841 118.505C153.905 112.625 155.086 111.45 155.086 111.45C155.086 110.324 157.244 111.352 157.419 111.439L155.086 109.1C152.73 106.756 155.086 106.756 155.086 106.756L159.786 109.1L155.086 105.575C153.905 103.231 157.43 103.231 157.43 103.231L162.13 106.756L158.611 103.231C156.255 100.876 159.786 100.876 159.786 100.876L168.016 105.575C166.841 99.7008 169.612 101.171 169.612 101.171L172.531 110.855L172.536 110.844Z" fill="#FF9783"/>
<path d="M357.013 158.238L357.1 166.151L357.302 166.14C368.9 168.19 368.643 166.834 368.643 166.834C369.173 166.064 367.216 165.758 367.052 165.73L369.747 165.228C372.457 164.73 370.845 163.626 370.845 163.626L366.533 163.025L371.397 162.823C373.305 161.774 370.894 160.118 370.894 160.118L366.03 160.32L370.091 159.561C372.802 159.058 370.392 157.402 370.392 157.402L362.565 156.752C366.123 153.292 363.544 152.992 363.544 152.992L357.007 158.233L357.013 158.238Z" fill="#FF9783"/>
<path d="M356.126 158.469V166.699L322.034 172.579C322.034 172.579 317.328 172.579 306.753 171.404C296.172 170.223 287.941 149.069 287.941 149.069C277.361 170.223 281.077 186.099 281.077 186.099C281.17 191.137 280.815 193.935 280.449 195.466C257.254 211.543 234.48 196.93 226.38 190.514C227.424 187.749 228.168 186.093 228.168 186.093C235.42 173.743 237.382 166.693 237.382 166.693V137.954L218.571 151.408C212.695 154.933 207.995 150.233 207.995 150.233L167.044 118.646L172.542 110.837L172.722 111.444L213.87 134.953L244.438 100.864C250.318 93.8087 266.19 90.3058 266.19 90.3058C269.715 80.3379 266.19 67.359 266.19 67.359L276.186 51.4891L297.342 44.434L300.867 49.1338V67.9437C299.692 83.2234 282.055 82.0539 282.055 82.0539L279.711 91.4643C297.342 94.9837 310.278 157.294 310.278 157.294L356.126 158.469Z" fill="#FF9783"/>
<path d="M268.533 84.9969C268.533 84.9969 263.833 89.6967 260.303 89.6967C256.772 89.6967 252.083 86.1719 247.962 87.3468C243.841 88.5218 240.316 93.227 236.791 92.0466C233.266 90.8662 232.091 83.8165 232.091 83.8165C232.091 83.8165 223.86 81.4667 222.685 73.2366C221.51 65.0066 226.21 68.5369 219.16 57.9515C219.16 57.9515 222.685 55.6016 220.335 41.4914C220.335 41.4914 220.335 37.9666 227.391 33.2614C227.391 33.2614 228.566 27.3812 227.391 23.8564C227.391 23.8564 227.391 19.1567 236.797 20.3316C236.797 20.3316 245.027 10.9266 248.552 12.1016C252.077 13.2765 254.433 15.6264 260.308 16.8013C266.189 17.9763 272.064 14.4515 277.945 25.0314C277.945 25.0314 295.581 28.5562 299.106 43.8413C299.106 43.8413 303.222 45.6065 302.047 52.6561L299.308 48.0984C298.964 47.5301 298.128 47.5574 297.827 48.1531L297.341 49.1313C297.341 49.1313 283.235 49.1313 279.704 56.1864C279.704 56.1864 275.086 64.4984 270.763 68.0232C270.042 68.6134 269.829 69.608 270.26 70.4332C271.211 72.242 271.927 76.3188 268.533 84.986V84.9969Z" fill="#010643"/>
<path d="M227.977 194.91C229.275 194.91 230.327 193.858 230.327 192.56C230.327 191.262 229.275 190.21 227.977 190.21C226.679 190.21 225.627 191.262 225.627 192.56C225.627 193.858 226.679 194.91 227.977 194.91Z" fill="#FFCED7"/>
<path d="M233.263 199.025C234.561 199.025 235.613 197.973 235.613 196.675C235.613 195.378 234.561 194.326 233.263 194.326C231.965 194.326 230.913 195.378 230.913 196.675C230.913 197.973 231.965 199.025 233.263 199.025Z" fill="#FFCED7"/>
<path d="M240.322 202.553C241.62 202.553 242.672 201.5 242.672 200.203C242.672 198.905 241.62 197.853 240.322 197.853C239.024 197.853 237.972 198.905 237.972 200.203C237.972 201.5 239.024 202.553 240.322 202.553Z" fill="#FFCED7"/>
<path d="M247.372 204.904C248.67 204.904 249.722 203.852 249.722 202.554C249.722 201.256 248.67 200.204 247.372 200.204C246.074 200.204 245.022 201.256 245.022 202.554C245.022 203.852 246.074 204.904 247.372 204.904Z" fill="#FFCED7"/>
<path d="M257.954 206.08C259.252 206.08 260.304 205.028 260.304 203.73C260.304 202.432 259.252 201.38 257.954 201.38C256.656 201.38 255.604 202.432 255.604 203.73C255.604 205.028 256.656 206.08 257.954 206.08Z" fill="#FFCED7"/>
<path d="M267.356 204.904C268.654 204.904 269.706 203.852 269.706 202.554C269.706 201.256 268.654 200.204 267.356 200.204C266.058 200.204 265.005 201.256 265.005 202.554C265.005 203.852 266.058 204.904 267.356 204.904Z" fill="#FFCED7"/>
<path d="M272.063 74.4128C273.361 74.4128 274.413 73.3607 274.413 72.0629C274.413 70.7651 273.361 69.7131 272.063 69.7131C270.766 69.7131 269.713 70.7651 269.713 72.0629C269.713 73.3607 270.766 74.4128 272.063 74.4128Z" fill="#FFCED7"/>
<path d="M274.415 202.553C275.713 202.553 276.765 201.5 276.765 200.203C276.765 198.905 275.713 197.853 274.415 197.853C273.117 197.853 272.065 198.905 272.065 200.203C272.065 201.5 273.117 202.553 274.415 202.553Z" fill="#FFCED7"/>
<path d="M281.47 196.674C282.768 196.674 283.82 195.622 283.82 194.324C283.82 193.026 282.768 191.974 281.47 191.974C280.172 191.974 279.12 193.026 279.12 194.324C279.12 195.622 280.172 196.674 281.47 196.674Z" fill="#FFCED7"/>
<path d="M237.38 139.201L252.076 142.6C252.076 142.6 254.427 155.53 263.832 153.18C273.238 150.83 273.238 140.25 273.238 140.25H276.763C276.763 140.25 275.189 150.781 284.994 152.005C294.4 153.18 293.225 139.075 293.225 139.075C293.225 139.075 293.225 129.67 289.699 128.495C289.699 128.495 291.82 111.483 286.644 95.892C286.644 95.892 285.54 92.553 281.447 92.0119C281.447 92.0119 287.934 102.045 286.759 127.91C286.759 127.91 277.353 127.91 277.353 136.14H273.828C273.828 136.14 271.478 127.91 264.423 127.91C264.423 127.91 266.002 104.537 261.684 91.5365L257.99 92.777C257.99 92.777 263.247 110.281 260.897 127.91C260.897 127.91 251.492 130.26 251.492 139.665L237.386 135.638C237.386 135.638 236.211 137.572 237.386 139.206L237.38 139.201Z" fill="#FFCED7"/>
<path d="M286.169 62.6599C286.818 62.6599 287.344 61.6078 287.344 60.31C287.344 59.0122 286.818 57.9601 286.169 57.9601C285.52 57.9601 284.994 59.0122 284.994 60.31C284.994 61.6078 285.52 62.6599 286.169 62.6599Z" fill="#68303C"/>
<path d="M299.102 62.6599C299.751 62.6599 300.277 61.6078 300.277 60.31C300.277 59.0122 299.751 57.9601 299.102 57.9601C298.453 57.9601 297.927 59.0122 297.927 60.31C297.927 61.6078 298.453 62.6599 299.102 62.6599Z" fill="#68303C"/>
<path d="M288.152 54.428H284.184C283.982 54.428 283.818 54.592 283.818 54.7942V56.4118C283.818 56.614 283.982 56.7779 284.184 56.7779H288.152C288.354 56.7779 288.518 56.614 288.518 56.4118V54.7942C288.518 54.592 288.354 54.428 288.152 54.428Z" fill="#68303C"/>
<path d="M299.909 53.2571H295.942C295.739 53.2571 295.576 53.421 295.576 53.6232V55.2408C295.576 55.443 295.739 55.607 295.942 55.607H299.909C300.112 55.607 300.276 55.443 300.276 55.2408V53.6232C300.276 53.421 300.112 53.2571 299.909 53.2571Z" fill="#68303C"/>
<path d="M290.877 69.1696V69.3499C290.877 69.7325 291.396 70.0276 291.976 69.9784L294.741 69.7379C295.222 69.6942 295.583 69.4264 295.583 69.1095L294.408 66.1858C294.227 66.306 294.266 68.5357 294.009 68.5357H291.85C291.314 68.5357 290.883 68.8198 290.883 69.1696H290.877Z" fill="#E96F69"/>
<path d="M287.933 71.4774H293.945L292.524 73.4939C291.972 74.2809 290.841 74.3792 290.157 73.6961L287.933 71.4719V71.4774Z" fill="white"/>
<path d="M356.123 158.469L357.008 158.24L357.101 166.153L356.123 166.694V158.469Z" fill="#FF9783"/>
<path d="M99.2153 108.026L77.0998 172.975C77.0998 172.975 85.7701 174.378 89.4859 174.274C108.852 173.706 124.242 172.552 124.242 172.552L135.511 126.678L99.2211 108.032L99.2153 108.026Z" stroke="#FDE6D4" stroke-miterlimit="10"/>
<path d="M99.2153 108.026L77.0998 172.975L126.974 175.666L135.505 126.672L99.2153 108.026Z" fill="#FDE6D4"/>
<path d="M78.9645 173.259C78.9645 173.259 86.8245 174.355 89.4811 174.268C92.1377 174.181 113.038 173.259 113.038 173.259L123.398 172.615L123.219 182.208L122.547 184.081C122.547 184.081 108.176 189.776 72.8699 187.207L78.9645 173.259Z" fill="#FD5E1A"/>
<path d="M101.08 262.224V283.972C101.08 283.972 100.993 290.514 109.901 294.979L113.015 360.856C113.015 360.856 115.243 362.787 116.875 360.856L123.705 293.935C123.705 293.935 131.443 289.029 131.281 283.079L131.021 261.342L101.08 262.224Z" fill="#010543"/>
<path d="M22.6081 218.494C22.6081 218.494 14.6845 225.001 0.0701447 228.284V233.335C0.0701447 233.335 33.1942 237.627 39.0573 233.335L22.6081 218.494Z" fill="#94B1DB"/>
<path d="M78.9412 237.227L92.6817 235.893V206.193H79.5895L78.9412 237.227Z" fill="#010543"/>
<path d="M137.424 171.582L142.592 180.241L137.424 183.558V171.582Z" fill="#94B1DB"/>
<path d="M42.4474 235.186L39.1772 264.566L26.6002 290.647L52.3389 303.835L69.008 274.53L86.5568 208.59L89.7749 215.039C89.7749 215.039 91.8238 238.19 94.7467 242.001C94.7467 242.001 97.4265 253.89 101.073 262.224C102.676 265.883 104.465 268.858 106.294 269.838C106.294 269.838 124.873 274.53 131.014 261.342C131.014 261.342 131.598 257.827 131.014 250.497L122.546 184.081L72.8686 187.207L42.4474 235.186Z" fill="#82A1BE"/>
<path d="M137.515 169.269L145.803 183.547C146.498 184.742 147.441 185.774 148.587 186.54C152.141 188.923 160.036 192.618 166.119 183.814C166.119 183.814 174.407 173.439 171.096 161.944" stroke="#778BAC" stroke-width="4" stroke-miterlimit="10" stroke-linecap="round"/>
<path d="M111.726 63.2717L112.542 59.1367C112.542 59.1367 99.1137 61.5782 85.9521 73.3396C72.7847 85.101 68.9241 94.734 68.9241 94.734C68.9241 94.734 58.0602 127.606 55.4441 131.688C52.8338 135.771 47.7116 146.239 44.5803 150.427C41.4491 154.614 39.9847 163.725 39.9847 163.725C39.9847 163.725 38.7287 174.929 37.7911 179.534C37.7911 179.534 32.6688 192.728 28.1774 199.635C28.1774 199.635 23.6861 207.592 23.1652 212.719C22.6442 217.846 22.3317 222.039 22.3317 222.039C22.3317 222.039 57.6435 249.992 63.4951 235.963C63.4951 235.963 66.5221 229.787 68.4032 210.312C68.4032 210.312 70.1801 191.365 79.4754 172.204C79.4754 172.204 91.8036 147.289 94.1014 130.853C94.1014 130.853 95.3574 125.512 97.551 121.22C99.7446 116.929 99.2237 108.026 99.2237 108.026L132.209 131.346C132.209 131.346 122.861 149.893 123.232 182.208C123.232 182.208 121.061 182.544 121.958 185.351C121.958 185.351 127.891 226.499 128.782 233.446C128.782 233.446 141.313 232.327 142.546 225.037C142.546 225.037 142.992 193.534 138.853 182.77C138.853 182.77 133.256 168.533 144.224 144.314C144.224 144.314 145.006 139.605 144.45 134.669C144.45 134.669 153.23 134.49 156.333 125.761C156.333 125.761 159.001 121.997 161.229 109.981C161.229 109.981 179.733 123.888 185.214 118.048C185.214 118.048 190.869 114.098 192.582 106.2C194.295 98.3007 197.039 82.3346 197.039 82.3346L180.248 79.0753L175.965 94.183L162.775 85.768L144.52 68.8102L111.743 63.2601L111.726 63.2717Z" fill="#010644"/>
<path d="M86.0367 39.3195L127.449 2.25494C127.449 2.25494 129.509 -0.94058 131.668 2.25494C131.668 2.25494 134.036 2.87549 135.992 1.84318C135.992 1.84318 137.844 -1.51473 140.315 0.834068C140.315 0.834068 159.965 17.5134 164.133 37.4637L86.0367 39.3195Z" fill="#D3481A"/>
<path d="M111.723 63.2719C111.723 63.2719 103.007 70.469 103.909 72.7366L138.475 104.274L150.097 75.5668C150.097 75.5668 146.323 70.092 142.549 69.1873L111.717 63.2719H111.723Z" fill="#FDE6D4"/>
<path d="M113.385 48.6446C113.385 48.6446 114.218 53.8178 112.441 57.7093C112.019 58.6314 111.862 59.6521 111.926 60.6612C111.972 61.3861 111.949 62.3025 111.723 63.271C111.353 64.889 110.438 66.6695 108.384 68.0208C108.384 68.0208 107.342 75.2933 111.295 75.5659H128.005C128.005 75.5659 131.304 74.2436 129.984 70.1144C128.664 65.9851 119.265 48.2213 113.385 48.6446Z" fill="#FE9885"/>
<path d="M164.133 37.4627C115.827 60.7651 86.0367 39.3185 86.0367 39.3185C86.0367 39.3185 124.653 18.9159 136.044 10.611C136.553 10.2398 137.207 10.1355 137.798 10.3384C141.554 11.6143 155.196 17.4834 164.133 37.4627Z" fill="#FB611A"/>
<path d="M189.623 55.5528L190.155 50.8494C190.155 50.8494 187.73 48.8254 187.817 45.1137L190.497 35.1154V32.3838C190.497 32.3838 191.967 27.9646 193.35 32.3838L193.784 36.7161L194.392 35.1154V31.9489C194.392 31.9489 196.036 29.5189 196.817 32.1229V37.064L197.425 34.9878C197.425 34.9878 197.251 33.161 197.946 33.335C197.946 33.335 199.59 32.4708 199.329 35.591L199.358 44.2612L200.371 47.6771C200.371 47.6771 199.248 49.5504 197.946 49.8983L198.067 56.7011L189.629 55.5586L189.623 55.5528Z" fill="#FE9A84"/>
<path d="M144.662 34.7905C144.662 34.7905 143.753 42.1152 143.533 42.9967C143.313 43.8783 140.257 50.2519 140.257 50.2519L124.572 44.928L122.17 32.8476L130.997 26.2652H140.94L145.785 29.6811L144.662 34.7847V34.7905Z" fill="#FE9885"/>
<path d="M144.63 34.5918C144.63 34.5918 146.696 24.6805 132.99 26.9597C132.377 27.0641 131.804 27.3598 131.375 27.8122C129.981 29.2795 126.572 32.8056 124.233 34.7658C123.828 35.108 123.597 35.6067 123.62 36.1403C123.718 38.4659 124.771 44.6829 133.233 45.8254C143.686 47.2405 143.495 42.8039 143.495 42.8039L143.715 41.9224L144.734 48.1278C144.734 48.1278 146.488 48.9456 146.169 50.9406C146.169 50.9406 146.169 52.6862 147.304 54.5189C147.674 55.1162 147.686 55.8702 147.333 56.4791C146.945 57.1519 146.354 58.016 145.544 58.7583C145.093 59.1701 144.948 59.8254 145.162 60.3996C145.961 62.557 147.419 67.5272 144.491 68.8262C144.491 68.8262 136.689 73.9124 134.646 73.2861C132.603 72.6597 132.053 71.1518 125.379 71.1344C125.379 71.1344 123.296 70.9547 122.717 68.1071C122.618 67.6258 122.3 67.2082 121.843 67.0284C119.649 66.1701 113.584 63.2993 115.742 58.5437C115.742 58.5437 119.094 53.1386 115.794 50.8826C115.794 50.8826 111.274 46.5156 109.358 43.3085C108.652 42.1254 108.652 40.6523 109.324 39.4518C111.951 34.7484 121.142 21.2298 138.801 23.8975C139.23 23.9613 139.664 24.0193 140.098 24.0541C142.575 24.2629 152.53 25.6606 144.612 34.586L144.63 34.5918Z" fill="#010646"/>
<path d="M129.493 39.1516C129.915 39.1516 130.257 38.4661 130.257 37.6205C130.257 36.775 129.915 36.0895 129.493 36.0895C129.071 36.0895 128.729 36.775 128.729 37.6205C128.729 38.4661 129.071 39.1516 129.493 39.1516Z" fill="#33050F"/>
<path d="M141.508 39.1505C142.007 39.1505 142.411 38.6623 142.411 38.0602C142.411 37.458 142.007 36.9698 141.508 36.9698C141.009 36.9698 140.605 37.458 140.605 38.0602C140.605 38.6623 141.009 39.1505 141.508 39.1505Z" fill="#33050F"/>
<path d="M133.605 33.053L129.824 31.6599C129.587 31.5726 129.325 31.6943 129.237 31.9318L129.156 32.1549C129.068 32.3924 129.19 32.6558 129.427 32.7431L133.208 34.1362C133.445 34.2235 133.708 34.1018 133.795 33.8643L133.877 33.6412C133.964 33.4037 133.842 33.1403 133.605 33.053Z" fill="#33050F"/>
<path d="M143.436 34.1471L139.492 34.967C139.245 35.0184 139.086 35.2609 139.137 35.5087L139.185 35.7415C139.237 35.9893 139.479 36.1484 139.726 36.097L143.67 35.2771C143.917 35.2257 144.076 34.9832 144.025 34.7354L143.977 34.5026C143.926 34.2549 143.684 34.0957 143.436 34.1471Z" fill="#33050F"/>
<path d="M117.507 37.4046C117.49 37.0218 117.2 36.7028 116.818 36.6506C115.481 36.4593 112.593 36.6042 112.535 41.3424C112.535 41.3424 113.01 45.8776 115.481 45.8776C115.481 45.8776 117.681 45.4369 118.387 42.6995C118.462 42.3979 118.433 42.079 118.294 41.8064C118.04 41.3018 117.634 40.0839 117.501 37.4104L117.507 37.4046Z" fill="#FE9885"/>
<path d="M112.675 43.8654C112.675 43.8654 110.307 44.9905 111.679 47.3045C113.051 49.6185 115.91 50.3087 117.45 48.6384C118.989 46.9681 118.677 44.7063 117.704 44.2424" stroke="#F4DB9A" stroke-width="2" stroke-miterlimit="10" stroke-linecap="round"/>
<path d="M130.869 48.2097L134.515 49.1724L132.559 50.2105C132.09 50.4599 131.517 50.2627 131.297 49.7813L130.684 48.43C130.626 48.3083 130.742 48.1749 130.869 48.2097Z" fill="#EAF5FE"/>
<path d="M150.103 65.1451C150.103 65.1451 150.612 61.3348 156.319 62.1004L167.16 63.5676C167.16 63.5676 170.98 63.9446 171.096 67.7723V86.9048C171.096 86.9048 169.903 90.6107 165.25 89.416L145.785 84.3936C145.785 84.3936 144.46 82.8394 145.785 79.1335L150.103 65.1451Z" fill="#27357A"/>
<path d="M181.007 58.2723C181.007 58.2723 181.516 54.462 187.223 55.2275L198.064 56.6948C198.064 56.6948 201.884 57.0718 201.999 60.8995V80.032C201.999 80.032 200.807 83.7379 196.154 82.5432L176.689 77.5208C176.689 77.5208 175.364 75.9666 176.689 72.2607L181.007 58.2723Z" fill="#27357A"/>
<path d="M152.134 45.1134C147.943 41.7787 152.134 37.6205 152.134 37.6205H168.392L167.408 44.4987L152.134 45.1134Z" fill="#80B0CE"/>
<path d="M168.394 37.6202C168.394 37.6202 170.246 34.9931 174.176 35.1207H234.092V47.6766H168.394V37.6202Z" fill="#80A2BE"/>
<path d="M156.938 62.0011L158.142 57.0889L153.778 45.8785C153.778 45.8785 153.39 42.6598 155.549 44.7418L157.552 48.3201C157.552 48.3201 161.267 35.6772 162.17 34.5579C163.073 33.4386 163.71 34.5579 163.71 34.5579L161.863 44.591C161.863 44.591 165.33 35.7004 166.407 36.0948C167.484 36.4891 165.099 43.8719 165.099 43.8719L169.255 39.1511C169.255 39.1511 171.182 39.1917 170.563 40.8098C169.949 42.4278 167.79 45.8785 167.79 45.8785C167.79 45.8785 171.564 42.4278 172.334 43.5123C173.104 44.5968 170.175 47.369 170.175 47.369L165.608 63.364L156.932 62.0011H156.938Z" fill="#FE9A84"/>
<path d="M235.144 47.8497C237.775 47.8497 239.908 44.9701 239.908 41.418C239.908 37.8659 237.775 34.9864 235.144 34.9864C232.513 34.9864 230.381 37.8659 230.381 41.418C230.381 44.9701 232.513 47.8497 235.144 47.8497Z" fill="#83DFFC"/>
<path d="M82.8239 96.3001L132.195 131.346C132.195 131.346 142.7 137.784 150.096 133.063C157.493 128.342 161.209 109.987 161.209 109.987L165.243 89.4161" stroke="#27357A" stroke-width="2" stroke-miterlimit="10" stroke-linecap="round"/>
<path d="M99.6455 68.9539L138.476 104.273L145.787 86.2248" stroke="#27357A" stroke-width="2" stroke-miterlimit="10" stroke-linecap="round"/>
<path d="M100.091 192.704C106.743 192.704 112.136 187.3 112.136 180.635C112.136 173.969 106.743 168.566 100.091 168.566C93.439 168.566 88.0465 173.969 88.0465 180.635C88.0465 187.3 93.439 192.704 100.091 192.704Z" fill="#FFD76A"/>
<path d="M26.6092 290.647C26.6092 290.647 23.9352 289.8 21.7647 293.64L12.6025 307.663C12.6025 307.663 11.1034 310.835 14.2694 312.505L41.594 325.862C41.594 325.862 45.4255 327.364 46.9246 323.524L52.9208 306.828C52.9208 306.828 54.5357 304.954 52.3421 303.829L26.6034 290.641L26.6092 290.647Z" fill="#27357A"/>
<path d="M18.7605 314.708L5.52945 350.775C5.52945 350.775 4.54554 353.077 3.39376 353.57L2.0799 362.78H28.0212C28.0212 362.78 32.4547 360.971 31.4708 358.5C30.4868 356.029 22.4417 354.55 22.4417 354.55L18.9921 353.565L36.512 323.378L18.7605 314.702V314.708Z" fill="#010543"/>
<path d="M141.047 173.126L144.387 178.148L172.411 161.144C172.411 161.144 174.466 156 169.072 155.159L141.047 173.126Z" fill="#010543"/>
<path d="M25.5592 228.4C17.161 230.331 8.66446 232.088 0 232.018L0.150491 229.704C6.44771 230.25 12.8548 229.606 19.1231 228.84C21.2357 228.568 23.3541 228.26 25.4493 227.901L25.5535 228.4H25.5592Z" fill="#7DA1C9"/>
</svg>
