<svg width="535" height="832" viewBox="0 0 535 832" fill="none" xmlns="http://www.w3.org/2000/svg">
<g clip-path="url(#clip0_73_394)">
<path d="M484.16 -12.7701C508.79 -14.1861 554.14 -29.9045 551.978 8.39236L534.701 314.465L532.824 322.014L534.701 321.328V330.398L527.98 343.037V370.916L534.332 379.871L525.336 387.006L534.701 405.668L594.045 780.908C600.036 818.796 514.068 850.417 489.419 849.396L54.2734 831.367L51.6895 824.072L39.9042 827.238L30.6035 815.098L27.0136 825.83C26.3032 825.359 25.6242 824.803 24.9335 824.277L22.7324 801.045L11.4882 808.521C4.36442 796.255 -6.10352e-05 780.033 -6.10352e-05 762.129V69.2383C-6.10352e-05 62.0289 0.901817 55.2229 2.20502 48.6973L6.79102 44.7285L20.1093 37.916L15.666 16.4922C16.3397 15.6008 17.0442 14.7698 17.7519 13.9414L38.3613 12.3301L47.7402 -3.8147e-06H143.371L170.715 25.6484L163.971 -3.8147e-06H237.74L242.807 3.85351L262.043 -3.8147e-06L484.16 -12.7701Z" fill="white"/>
</g>
<defs>
<clipPath id="clip0_73_394">
<rect width="534.701" height="831.367" fill="white" transform="matrix(-1 0 0 1 534.701 0)"/>
</clipPath>
</defs>
</svg>
