<svg width="21" height="20" viewBox="0 0 21 20" fill="#3B60BC" xmlns="http://www.w3.org/2000/svg">
<path d="M20.2315 10.6308C20.1795 11.5656 19.8079 14.0673 18.9871 14.6316C18.5609 14.9243 18.2916 14.3456 17.9992 14.1223C16.2187 16.5613 13.7367 18.6713 10.8789 19.7601C10.653 19.8464 10.2498 20.0317 10.0282 19.9953C9.79043 19.9564 9.19807 19.6874 8.94492 19.5799C6.24304 18.4302 3.9571 16.4657 2.2354 14.1223C1.63451 14.7762 1.36688 15.0038 0.852073 14.1223C0.298059 13.1747 -0.0155966 11.2331 0.000597631 10.1401C0.00400694 9.92772 0.0900896 9.71283 0.317661 9.66546C0.650922 9.59608 0.791557 9.95987 0.990149 10.1418C1.51263 10.6198 2.1604 11.0064 2.78174 11.344C2.9863 11.4548 3.84289 11.8194 3.93239 11.9277C4.30741 12.382 3.34854 12.9091 3.12778 13.245C3.11841 13.2983 3.24115 13.3972 3.28291 13.4362C4.67391 14.7407 6.08707 15.7982 7.86673 14.2991C9.11283 13.2492 9.23898 10.2357 9.16823 8.73061C9.15971 8.55464 9.17761 8.37528 9.16994 8.19931H7.09623C7.08004 8.19931 6.91212 8.11978 6.88059 8.09948C6.59335 7.9142 6.54051 7.53265 6.74336 7.26023C6.78257 7.20693 6.97264 7.06142 7.01781 7.06142H9.07192C9.09152 7.06142 9.13669 6.99627 9.13243 6.96412L9.01311 5.8753C7.42011 5.20018 6.62745 3.44977 7.31954 1.83134C8.2213 -0.275245 11.1397 -0.661875 12.5443 1.18244C13.7827 2.80933 13.1247 5.11896 11.2317 5.85246L11.1465 7.0225H13.1017C13.1162 7.0225 13.3063 7.09018 13.3336 7.10625C13.6626 7.29238 13.7273 7.73992 13.4716 8.01742C13.4341 8.05802 13.2074 8.19931 13.181 8.19931H11.0672C11.0613 9.51825 11.0459 10.8668 11.3229 12.1621C11.5752 13.3465 12.0312 14.305 13.2006 14.8084C14.884 15.5334 15.9289 14.2619 17.0949 13.2983C17.1315 13.2526 17.0991 13.234 17.0753 13.1993C16.8443 12.8651 15.8488 12.338 16.3414 11.8854C17.2764 11.4023 18.2677 10.9751 19.0672 10.2771C19.4226 9.96664 19.8027 9.25429 20.234 9.92518C20.2246 10.1587 20.2468 10.3981 20.234 10.6308H20.2315ZM11.1704 4.06736C12.6185 2.60714 10.1953 0.506475 8.93214 2.13929C7.8207 3.57667 9.88419 5.36261 11.1704 4.06736Z" fill="#3B60BC"/>
</svg>
