<svg width="671" height="849" viewBox="0 0 671 849" fill="none" xmlns="http://www.w3.org/2000/svg">
<path d="M583.936 834.43C583.936 834.43 605.375 547.025 344.302 299.109L318.892 321.187C318.892 321.187 539.31 493.426 511.357 838.638L583.936 834.43Z" fill="#FCD3A1"/>
<path d="M270.036 293.479C270.164 295.695 270.507 297.88 271.064 300.026C271.63 302.181 272.389 304.252 273.36 306.257C274.322 308.254 275.476 310.14 276.82 311.908C278.157 313.684 279.655 315.308 281.316 316.787C282.977 318.257 284.762 319.558 286.673 320.689C288.593 321.811 290.6 322.739 292.695 323.472C294.798 324.197 296.944 324.72 299.14 325.025C301.345 325.329 303.555 325.417 305.771 325.289C307.987 325.16 310.173 324.817 312.319 324.261C314.474 323.704 316.545 322.936 318.55 321.973C320.547 321.002 322.433 319.849 324.201 318.513C325.977 317.168 327.601 315.669 329.08 314.017C330.559 312.356 331.86 310.571 332.982 308.651C334.113 306.74 335.032 304.734 335.766 302.639C336.499 300.535 337.014 298.39 337.318 296.185C337.631 293.988 337.719 291.777 337.591 289.562C337.462 287.346 337.12 285.16 336.554 283.014C335.997 280.859 335.238 278.788 334.267 276.792C333.296 274.787 332.151 272.909 330.806 271.133C329.471 269.365 327.972 267.732 326.311 266.262C324.65 264.783 322.864 263.483 320.945 262.361C319.034 261.229 317.027 260.301 314.932 259.577C312.829 258.844 310.683 258.329 308.478 258.025C306.282 257.711 304.071 257.623 301.855 257.752C299.639 257.88 297.454 258.223 295.299 258.789C293.153 259.345 291.082 260.105 289.077 261.076C287.08 262.038 285.194 263.191 283.417 264.537C281.649 265.872 280.026 267.371 278.547 269.032C277.068 270.684 275.767 272.479 274.645 274.389C273.514 276.309 272.586 278.307 271.862 280.41C271.128 282.505 270.613 284.651 270.3 286.856C269.995 289.052 269.907 291.263 270.036 293.479Z" fill="#FCD3A1"/>
<path d="M270.036 293.479C270.164 295.695 270.507 297.88 271.064 300.026C271.63 302.181 272.389 304.252 273.36 306.257C274.322 308.254 275.476 310.14 276.82 311.908C278.157 313.684 279.655 315.308 281.316 316.787C282.977 318.257 284.762 319.558 286.673 320.689C288.593 321.811 290.6 322.739 292.695 323.472C294.798 324.197 296.944 324.72 299.14 325.025C301.345 325.329 303.555 325.417 305.771 325.289C307.987 325.16 310.173 324.817 312.319 324.261C314.474 323.704 316.545 322.936 318.55 321.973C320.547 321.002 322.433 319.849 324.201 318.513C325.977 317.168 327.601 315.669 329.08 314.017C330.559 312.356 331.86 310.571 332.982 308.651C334.113 306.74 335.032 304.734 335.766 302.639C336.499 300.535 337.014 298.39 337.318 296.185C337.631 293.988 337.719 291.777 337.591 289.562C337.462 287.346 337.12 285.16 336.554 283.014C335.997 280.859 335.238 278.788 334.267 276.792C333.296 274.787 332.151 272.909 330.806 271.133C329.471 269.365 327.972 267.732 326.311 266.262C324.65 264.783 322.864 263.483 320.945 262.361C319.034 261.229 317.027 260.301 314.932 259.577C312.829 258.844 310.683 258.329 308.478 258.025C306.282 257.711 304.071 257.623 301.855 257.752C299.639 257.88 297.454 258.223 295.299 258.789C293.153 259.345 291.082 260.105 289.077 261.076C287.08 262.038 285.194 263.191 283.417 264.537C281.649 265.872 280.026 267.371 278.547 269.032C277.068 270.684 275.767 272.479 274.645 274.389C273.514 276.309 272.586 278.307 271.862 280.41C271.128 282.505 270.613 284.651 270.3 286.856C269.995 289.052 269.907 291.263 270.036 293.479Z" fill="black" fill-opacity="0.43"/>
<path d="M327.305 321.609C327.434 323.825 327.777 326.011 328.342 328.157C328.899 330.312 329.658 332.383 330.629 334.379C331.592 336.385 332.745 338.262 334.09 340.038C335.426 341.806 336.925 343.439 338.585 344.909C340.246 346.388 342.032 347.688 343.942 348.811C345.862 349.942 347.869 350.87 349.964 351.594C352.068 352.327 354.213 352.842 356.418 353.146C358.614 353.46 360.825 353.548 363.041 353.419C365.257 353.291 367.442 352.948 369.597 352.382C371.743 351.826 373.814 351.066 375.819 350.095C377.816 349.133 379.703 347.98 381.479 346.634C383.247 345.299 384.87 343.8 386.349 342.139C387.829 340.487 389.129 338.692 390.251 336.782C391.382 334.862 392.31 332.864 393.035 330.761C393.768 328.666 394.283 326.52 394.596 324.315C394.901 322.119 394.989 319.908 394.86 317.692C394.732 315.476 394.389 313.291 393.833 311.145C393.267 308.99 392.507 306.919 391.536 304.914C390.574 302.917 389.42 301.031 388.076 299.263C386.74 297.487 385.241 295.863 383.58 294.384C381.92 292.914 380.134 291.613 378.223 290.482C376.304 289.36 374.296 288.432 372.201 287.699C370.098 286.974 367.952 286.451 365.756 286.146C363.551 285.842 361.341 285.754 359.125 285.882C356.909 286.011 354.723 286.354 352.577 286.91C350.422 287.467 348.351 288.235 346.346 289.198C344.35 290.169 342.463 291.322 340.686 292.659C338.919 294.003 337.296 295.502 335.816 297.154C334.337 298.815 333.036 300.6 331.914 302.52C330.783 304.431 329.855 306.438 329.131 308.532C328.397 310.636 327.883 312.781 327.578 314.986C327.265 317.183 327.177 319.394 327.305 321.609Z" fill="#FCD3A1"/>
<path d="M327.305 321.609C327.434 323.825 327.777 326.011 328.342 328.157C328.899 330.312 329.658 332.383 330.629 334.379C331.592 336.385 332.745 338.262 334.09 340.038C335.426 341.806 336.925 343.439 338.585 344.909C340.246 346.388 342.032 347.688 343.942 348.811C345.862 349.942 347.869 350.87 349.964 351.594C352.068 352.327 354.213 352.842 356.418 353.146C358.614 353.46 360.825 353.548 363.041 353.419C365.257 353.291 367.442 352.948 369.597 352.382C371.743 351.826 373.814 351.066 375.819 350.095C377.816 349.133 379.703 347.98 381.479 346.634C383.247 345.299 384.87 343.8 386.349 342.139C387.829 340.487 389.129 338.692 390.251 336.782C391.382 334.862 392.31 332.864 393.035 330.761C393.768 328.666 394.283 326.52 394.596 324.315C394.901 322.119 394.989 319.908 394.86 317.692C394.732 315.476 394.389 313.291 393.833 311.145C393.267 308.99 392.507 306.919 391.536 304.914C390.574 302.917 389.42 301.031 388.076 299.263C386.74 297.487 385.241 295.863 383.58 294.384C381.92 292.914 380.134 291.613 378.223 290.482C376.304 289.36 374.296 288.432 372.201 287.699C370.098 286.974 367.952 286.451 365.756 286.146C363.551 285.842 361.341 285.754 359.125 285.882C356.909 286.011 354.723 286.354 352.577 286.91C350.422 287.467 348.351 288.235 346.346 289.198C344.35 290.169 342.463 291.322 340.686 292.659C338.919 294.003 337.296 295.502 335.816 297.154C334.337 298.815 333.036 300.6 331.914 302.52C330.783 304.431 329.855 306.438 329.131 308.532C328.397 310.636 327.883 312.781 327.578 314.986C327.265 317.183 327.177 319.394 327.305 321.609Z" fill="black" fill-opacity="0.21"/>
<path d="M262.309 356.127C262.385 357.446 262.524 358.761 262.726 360.063C262.937 361.374 263.201 362.664 263.537 363.95C263.872 365.227 264.269 366.491 264.719 367.725C265.178 368.968 265.699 370.189 266.272 371.38C266.845 372.571 267.479 373.731 268.174 374.852C268.861 375.983 269.608 377.073 270.399 378.135C271.198 379.187 272.049 380.2 272.943 381.174C273.845 382.148 274.781 383.075 275.768 383.954C276.764 384.832 277.794 385.663 278.856 386.439C279.927 387.214 281.032 387.942 282.178 388.614C283.315 389.286 284.484 389.893 285.686 390.445C286.889 391.005 288.115 391.501 289.364 391.933C290.614 392.364 291.878 392.741 293.165 393.054C294.452 393.357 295.754 393.606 297.061 393.791C298.376 393.976 299.688 394.089 301.015 394.147C302.332 394.196 303.654 394.183 304.973 394.106C306.292 394.03 307.607 393.891 308.919 393.688C310.221 393.478 311.52 393.214 312.796 392.879C314.082 392.543 315.337 392.146 316.581 391.696C317.823 391.237 319.044 390.716 320.235 390.143C321.426 389.57 322.587 388.935 323.708 388.249C324.838 387.553 325.929 386.815 326.99 386.015C328.042 385.216 329.055 384.365 330.029 383.472C331.004 382.578 331.93 381.633 332.809 380.646C333.688 379.659 334.519 378.63 335.294 377.558C336.078 376.487 336.797 375.383 337.47 374.246C338.141 373.1 338.749 371.93 339.309 370.728C339.861 369.534 340.357 368.308 340.789 367.059C341.229 365.809 341.597 364.537 341.909 363.249C342.222 361.971 342.471 360.669 342.647 359.363C342.832 358.047 342.953 356.735 343.003 355.409C343.052 354.092 343.048 352.769 342.971 351.45C342.895 350.131 342.746 348.816 342.544 347.505C342.343 346.202 342.069 344.904 341.734 343.627C341.408 342.35 341.011 341.086 340.552 339.843C340.093 338.6 339.581 337.388 338.999 336.197C338.426 335.006 337.792 333.846 337.105 332.715C336.409 331.586 335.671 330.494 334.872 329.442C334.072 328.381 333.23 327.368 332.328 326.403C331.435 325.429 330.49 324.502 329.503 323.624C328.515 322.745 327.486 321.913 326.415 321.138C325.343 320.354 324.239 319.635 323.102 318.963C321.956 318.291 320.787 317.684 319.584 317.123C318.391 316.571 317.165 316.075 315.915 315.644C314.666 315.203 313.393 314.836 312.106 314.523C310.818 314.211 309.526 313.971 308.21 313.786C306.903 313.601 305.583 313.488 304.265 313.43C302.939 313.381 301.616 313.385 300.297 313.462C298.978 313.538 297.664 313.687 296.361 313.888C295.05 314.099 293.76 314.363 292.474 314.699C291.198 315.034 289.933 315.422 288.69 315.881C287.448 316.34 286.235 316.852 285.045 317.434C283.854 318.007 282.693 318.641 281.563 319.328C280.433 320.024 279.342 320.762 278.29 321.561C277.229 322.361 276.216 323.203 275.242 324.105C274.276 324.998 273.35 325.943 272.462 326.931C271.583 327.918 270.761 328.947 269.977 330.019C269.201 331.081 268.473 332.185 267.801 333.331C267.138 334.468 266.522 335.638 265.97 336.84C265.41 338.043 264.914 339.269 264.482 340.518C264.051 341.767 263.674 343.031 263.361 344.319C263.058 345.606 262.809 346.907 262.624 348.214C262.439 349.521 262.326 350.842 262.268 352.16C262.219 353.486 262.232 354.808 262.309 356.127Z" fill="#FCD3A1"/>
<path d="M262.309 356.127C262.385 357.446 262.524 358.761 262.726 360.063C262.937 361.374 263.201 362.664 263.537 363.95C263.872 365.227 264.269 366.491 264.719 367.725C265.178 368.968 265.699 370.189 266.272 371.38C266.845 372.571 267.479 373.731 268.174 374.852C268.861 375.983 269.608 377.073 270.399 378.135C271.198 379.187 272.049 380.2 272.943 381.174C273.845 382.148 274.781 383.075 275.768 383.954C276.764 384.832 277.794 385.663 278.856 386.439C279.927 387.214 281.032 387.942 282.178 388.614C283.315 389.286 284.484 389.893 285.686 390.445C286.889 391.005 288.115 391.501 289.364 391.933C290.614 392.364 291.878 392.741 293.165 393.054C294.452 393.357 295.754 393.606 297.061 393.791C298.376 393.976 299.688 394.089 301.015 394.147C302.332 394.196 303.654 394.183 304.973 394.106C306.292 394.03 307.607 393.891 308.919 393.688C310.221 393.478 311.52 393.214 312.796 392.879C314.082 392.543 315.337 392.146 316.581 391.696C317.823 391.237 319.044 390.716 320.235 390.143C321.426 389.57 322.587 388.935 323.708 388.249C324.838 387.553 325.929 386.815 326.99 386.015C328.042 385.216 329.055 384.365 330.029 383.472C331.004 382.578 331.93 381.633 332.809 380.646C333.688 379.659 334.519 378.63 335.294 377.558C336.078 376.487 336.797 375.383 337.47 374.246C338.141 373.1 338.749 371.93 339.309 370.728C339.861 369.534 340.357 368.308 340.789 367.059C341.229 365.809 341.597 364.537 341.909 363.249C342.222 361.971 342.471 360.669 342.647 359.363C342.832 358.047 342.953 356.735 343.003 355.409C343.052 354.092 343.048 352.769 342.971 351.45C342.895 350.131 342.746 348.816 342.544 347.505C342.343 346.202 342.069 344.904 341.734 343.627C341.408 342.35 341.011 341.086 340.552 339.843C340.093 338.6 339.581 337.388 338.999 336.197C338.426 335.006 337.792 333.846 337.105 332.715C336.409 331.586 335.671 330.494 334.872 329.442C334.072 328.381 333.23 327.368 332.328 326.403C331.435 325.429 330.49 324.502 329.503 323.624C328.515 322.745 327.486 321.913 326.415 321.138C325.343 320.354 324.239 319.635 323.102 318.963C321.956 318.291 320.787 317.684 319.584 317.123C318.391 316.571 317.165 316.075 315.915 315.644C314.666 315.203 313.393 314.836 312.106 314.523C310.818 314.211 309.526 313.971 308.21 313.786C306.903 313.601 305.583 313.488 304.265 313.43C302.939 313.381 301.616 313.385 300.297 313.462C298.978 313.538 297.664 313.687 296.361 313.888C295.05 314.099 293.76 314.363 292.474 314.699C291.198 315.034 289.933 315.422 288.69 315.881C287.448 316.34 286.235 316.852 285.045 317.434C283.854 318.007 282.693 318.641 281.563 319.328C280.433 320.024 279.342 320.762 278.29 321.561C277.229 322.361 276.216 323.203 275.242 324.105C274.276 324.998 273.35 325.943 272.462 326.931C271.583 327.918 270.761 328.947 269.977 330.019C269.201 331.081 268.473 332.185 267.801 333.331C267.138 334.468 266.522 335.638 265.97 336.84C265.41 338.043 264.914 339.269 264.482 340.518C264.051 341.767 263.674 343.031 263.361 344.319C263.058 345.606 262.809 346.907 262.624 348.214C262.439 349.521 262.326 350.842 262.268 352.16C262.219 353.486 262.232 354.808 262.309 356.127Z" fill="black" fill-opacity="0.29"/>
<path d="M296.648 258.457C296.648 258.457 538.684 167.189 611.107 376.382C611.107 376.382 530.94 363.054 544.335 330.781C557.73 298.508 531.764 351.187 506.619 347.244C481.465 343.302 458.749 323.969 469.208 304.244C479.667 284.509 441.845 331.296 417.533 315.485C393.213 299.675 296.648 258.457 296.648 258.457Z" fill="#46CC4F"/>
<path d="M291.131 260.164C291.131 260.164 85.0449 141.509 4.94752 312.26C4.94752 312.26 75.6505 319.476 58.0096 276.823C40.3687 234.17 76.1257 295.846 95.5623 292.621C113.626 289.621 133.998 286.396 132.045 267.3C132.022 267.058 132.026 266.824 132.057 266.579C132.088 266.343 132.156 266.114 132.251 265.893C132.338 265.672 132.461 265.466 132.603 265.278C132.745 265.09 132.915 264.918 133.105 264.772C133.294 264.617 133.494 264.497 133.713 264.404C133.932 264.301 134.162 264.233 134.394 264.193C134.635 264.152 134.869 264.148 135.113 264.169C135.348 264.183 135.576 264.233 135.806 264.318C156.616 271.744 242.08 300.347 271.847 280.464L291.131 260.164Z" fill="#2F9536"/>
<path d="M277.367 270.423C277.367 270.423 -6.08219 244.695 50.5887 476.262C50.5887 476.262 94.0123 423.785 87.217 406.725C80.4217 389.665 74.5488 384.784 104.514 392.687C104.514 392.687 148.445 371.156 122.112 342.527C116.29 336.204 160.055 358.708 177.074 343.427C177.074 343.427 252.821 279.597 271.847 280.474L277.367 270.423Z" fill="#46CC4F"/>
<path d="M291.131 260.164C291.131 260.164 33.2966 413.838 209.392 572.597C209.392 572.597 210.976 513.914 224.701 500.2C238.425 486.487 176.558 490.543 219.831 478.618C251.338 469.95 240.776 434.979 228.742 427.692C221.67 423.412 262.489 436.078 256.157 380.905C256.148 380.906 278.028 275.911 291.131 260.164Z" fill="#46CC4F"/>
<path d="M291.131 260.165C291.131 260.165 287.834 -11.4027 523.836 3.00699C523.836 3.00699 499.65 64.6572 470.219 50.7639C440.779 36.8622 480.307 74.1414 451.269 93.4143C422.239 112.678 416.21 111.002 406.614 106.814C399.263 103.604 414.682 129.985 405.9 139.208C405.9 139.208 380.551 151.461 374.662 167.889C368.764 184.308 322.896 251.752 311.655 258.624C310.156 259.629 308.555 260.424 306.852 261.018C305.149 261.612 303.397 261.974 301.595 262.106C299.803 262.246 298.015 262.142 296.241 261.822C294.467 261.493 292.769 260.943 291.131 260.165Z" fill="#46CC4F"/>
<mask id="mask0_87_430" style="mask-type:luminance" maskUnits="userSpaceOnUse" x="290" y="122" width="381" height="149">
<path d="M662.689 122.922L290.419 144.508L297.743 270.826L670.014 249.24L662.689 122.922Z" fill="white"/>
</mask>
<g mask="url(#mask0_87_430)">
<path d="M298.912 262.107C298.912 262.107 441.255 65.5759 664.391 152.268C664.391 152.268 599.045 208.563 577.831 166.234C556.609 123.906 587.017 203.409 526.309 213.321C465.6 223.232 468.469 173.971 454.328 212.165C440.186 250.351 315.88 282.898 298.912 262.107Z" fill="#2F9536"/>
</g>
<path d="M428.703 448.188C429.052 448.168 429.379 448.059 429.683 447.87L443.804 439.121C444.29 438.814 444.606 438.372 444.736 437.816C444.865 437.25 444.781 436.724 444.473 436.229C444.174 435.733 443.733 435.425 443.176 435.287C442.611 435.157 442.076 435.242 441.589 435.55L427.469 444.308C427.061 444.557 426.775 444.906 426.603 445.357C426.44 445.808 426.431 446.267 426.575 446.727C426.718 447.178 426.991 447.549 427.385 447.814C427.779 448.089 428.218 448.216 428.703 448.188Z" fill="#AA8A62"/>
<path d="M439.314 463.352C439.664 463.332 439.991 463.232 440.295 463.043L457.708 452.24C458.204 451.941 458.53 451.508 458.668 450.933C458.806 450.367 458.721 449.832 458.404 449.337C458.096 448.842 457.655 448.525 457.089 448.396C456.515 448.268 455.98 448.362 455.494 448.678L438.082 459.481C437.673 459.73 437.387 460.08 437.224 460.53C437.052 460.981 437.043 461.441 437.186 461.892C437.33 462.351 437.603 462.713 437.997 462.988C438.4 463.261 438.83 463.38 439.314 463.352Z" fill="#AA8A62"/>
<path d="M448.194 479.6C448.553 479.579 448.879 479.47 449.175 479.291L466.588 468.487C467.074 468.18 467.391 467.748 467.52 467.182C467.659 466.616 467.565 466.09 467.267 465.603C466.959 465.108 466.527 464.791 465.961 464.662C465.395 464.533 464.869 464.617 464.374 464.925L446.961 475.719C446.552 475.977 446.267 476.327 446.104 476.777C445.932 477.228 445.922 477.679 446.066 478.139C446.218 478.598 446.482 478.961 446.885 479.234C447.279 479.509 447.718 479.627 448.194 479.6Z" fill="#AA8A62"/>
<path d="M456.929 497.358C457.288 497.337 457.616 497.237 457.92 497.048L475.324 486.254C475.819 485.947 476.136 485.514 476.265 484.948C476.395 484.383 476.31 483.857 476.002 483.361C475.704 482.866 475.263 482.558 474.697 482.42C474.131 482.291 473.605 482.375 473.11 482.683L455.706 493.486C455.297 493.735 455.011 494.084 454.839 494.535C454.676 494.986 454.667 495.446 454.811 495.905C454.954 496.356 455.228 496.727 455.621 496.992C456.015 497.267 456.454 497.394 456.929 497.358Z" fill="#AA8A62"/>
<path d="M467.641 512.705C468 512.684 468.326 512.575 468.622 512.387L486.035 501.592C486.53 501.284 486.838 500.852 486.976 500.286C487.106 499.721 487.021 499.195 486.713 498.699C486.406 498.204 485.973 497.887 485.408 497.758C484.842 497.629 484.316 497.713 483.821 498.021L466.417 508.824C466.008 509.073 465.714 509.432 465.551 509.882C465.387 510.324 465.369 510.784 465.522 511.243C465.665 511.694 465.93 512.066 466.332 512.339C466.726 512.605 467.165 512.732 467.641 512.705Z" fill="#AA8A62"/>
<path d="M472.141 535.677C472.5 535.656 472.827 535.556 473.122 535.368L490.535 524.574C491.022 524.266 491.339 523.834 491.468 523.268C491.606 522.702 491.513 522.177 491.214 521.681C490.906 521.195 490.474 520.878 489.908 520.748C489.342 520.61 488.817 520.704 488.321 521.002L470.908 531.806C470.499 532.055 470.214 532.404 470.051 532.855C469.879 533.306 469.869 533.765 470.013 534.216C470.165 534.675 470.43 535.047 470.823 535.312C471.226 535.586 471.666 535.714 472.141 535.677Z" fill="#AA8A62"/>
<path d="M487.703 557.711C488.053 557.691 488.381 557.591 488.685 557.402L506.098 546.608C506.584 546.3 506.901 545.868 507.031 545.302C507.169 544.736 507.075 544.21 506.777 543.715C506.469 543.219 506.037 542.911 505.471 542.773C504.905 542.644 504.379 542.729 503.884 543.036L486.47 553.831C486.062 554.088 485.776 554.438 485.613 554.889C485.442 555.34 485.432 555.79 485.575 556.25C485.719 556.71 485.992 557.072 486.386 557.346C486.789 557.62 487.219 557.739 487.703 557.711Z" fill="#AA8A62"/>
<path d="M494.881 582.742C495.231 582.722 495.558 582.613 495.862 582.433L513.275 571.63C513.761 571.323 514.078 570.89 514.208 570.325C514.346 569.759 514.261 569.232 513.954 568.737C513.646 568.251 513.214 567.934 512.648 567.805C512.082 567.666 511.547 567.76 511.061 568.068L493.648 578.862C493.24 579.12 492.954 579.47 492.782 579.921C492.619 580.371 492.609 580.822 492.753 581.281C492.897 581.741 493.17 582.103 493.564 582.378C493.958 582.652 494.397 582.77 494.881 582.742Z" fill="#AA8A62"/>
<path d="M501.603 605.837C501.961 605.817 502.289 605.717 502.593 605.528L519.997 594.725C520.511 594.434 520.836 593.992 520.975 593.426C521.121 592.851 521.036 592.315 520.719 591.812C520.411 591.307 519.969 590.991 519.386 590.863C518.812 590.743 518.277 590.837 517.783 591.163L500.379 601.966C499.97 602.214 499.684 602.564 499.513 603.015C499.35 603.466 499.34 603.925 499.483 604.376C499.627 604.836 499.9 605.198 500.294 605.472C500.688 605.746 501.127 605.865 501.603 605.837Z" fill="#AA8A62"/>
<path d="M508.548 630.144C508.898 630.123 509.225 630.024 509.529 629.835L538.307 611.981C538.803 611.673 539.12 611.241 539.249 610.675C539.387 610.109 539.303 609.583 538.995 609.088C538.687 608.593 538.255 608.285 537.689 608.146C537.123 608.017 536.588 608.102 536.102 608.409L507.315 626.264C506.907 626.521 506.621 626.871 506.449 627.322C506.286 627.772 506.276 628.223 506.42 628.683C506.564 629.143 506.837 629.505 507.231 629.779C507.634 630.053 508.064 630.172 508.548 630.144Z" fill="#AA8A62"/>
<path d="M514.529 655.039C514.888 655.018 515.215 654.918 515.519 654.73L542.429 638.038C542.925 637.73 543.233 637.298 543.371 636.732C543.5 636.166 543.415 635.631 543.108 635.145C542.8 634.649 542.368 634.332 541.802 634.203C541.236 634.074 540.71 634.158 540.215 634.466L513.305 651.158C512.897 651.416 512.611 651.766 512.439 652.217C512.276 652.667 512.267 653.127 512.41 653.578C512.554 654.037 512.827 654.4 513.221 654.674C513.615 654.948 514.054 655.067 514.529 655.039Z" fill="#AA8A62"/>
<path d="M519.674 678.1C520.024 678.079 520.351 677.979 520.655 677.791L547.565 661.099C548.042 660.783 548.341 660.351 548.462 659.795C548.583 659.239 548.49 658.723 548.191 658.236C547.894 657.758 547.47 657.44 546.914 657.311C546.365 657.171 545.848 657.246 545.351 657.527L518.441 674.228C518.033 674.477 517.747 674.836 517.575 675.287C517.413 675.737 517.403 676.188 517.546 676.648C517.69 677.098 517.963 677.47 518.357 677.744C518.75 678.009 519.19 678.137 519.674 678.109L519.674 678.1Z" fill="#AA8A62"/>
</svg>
